<svg class="svg-icon" style="width: 1em; height: 1em;vertical-align: middle;fill: currentColor;overflow: hidden;" viewBox="0 0 1024 1024" version="1.1" xmlns="http://www.w3.org/2000/svg"><path d="M608 401.6l45 46.4 106-105.5 40.9 39.4V256h-128l42.1 40.8-106 104.8z m0 0M416 621.8L370.5 576 265.3 681.7 224 642.9l1.1 125.1 128.2-1-42.5-40.3L416 621.8z m0 0M654.4 576L608 621l105.5 106-39.4 41H800V639.9L759.2 682 654.4 576z m0 0M369.9 448l46.1-45.3-105.6-105.6 39.1-41.1-125.5 0.6 0.5 128.2 40.5-42.3L369.9 448z m0 0"  /><path d="M848 864H176c-26.5 0-48-21.5-48-48V208c0-26.5 21.5-48 48-48h672c26.5 0 48 21.5 48 48v608c0 26.5-21.5 48-48 48zM176 192c-8.8 0-16 7.2-16 16v608c0 8.8 7.2 16 16 16h672c8.8 0 16-7.2 16-16V208c0-8.8-7.2-16-16-16H176z"  /></svg>