<svg xmlns="http://www.w3.org/2000/svg" width="760.037" height="754.058" viewBox="0 0 760.037 754.058">
  <g id="Group_28" data-name="Group 28" transform="translate(3989.996 2564)">
    <g id="_x23_ffffffff" transform="translate(-3973.129 -2376.922)">
      <path id="Path_2" data-name="Path 2" d="M447.7,38.3c1.954.488-.489,2.931-1.465,3.419C444.28,40.742,445.745,38.3,447.7,38.3Z" transform="translate(-392.275 -38.3)" fill="#fff"/>
      <path id="Path_3" data-name="Path 3" d="M511.2,49.1c6.35,6.838,11.723,16.119,11.234,25.888A31.921,31.921,0,0,1,511.2,98.922Z" transform="translate(-136.326 3.653)" fill="#fff"/>
      <path id="Path_4" data-name="Path 4" d="M437.561,60.4c-1.465-1.954-.489-3.419,1.465-4.4A3.709,3.709,0,0,1,437.561,60.4Z" transform="translate(-425.121 30.457)" fill="#fff"/>
      <path id="Path_5" data-name="Path 5" d="M436.683,61.716c-.977,0-.977-1.954,0-1.954C438.148,59.273,437.66,61.227,436.683,61.716Z" transform="translate(-428.639 44.768)" fill="#fff"/>
      <path id="Path_6" data-name="Path 6" d="M583.477,90.6a2.045,2.045,0,0,1-.977,3.908A9.2,9.2,0,0,1,583.477,90.6Z" transform="translate(140.642 164.862)" fill="#fff"/>
      <path id="Path_7" data-name="Path 7" d="M436.636,96.108a2.045,2.045,0,0,1-.977-3.908C436.636,93.177,436.636,94.642,436.636,96.108Z" transform="translate(-434.453 171.077)" fill="#fff"/>
      <path id="Path_8" data-name="Path 8" d="M440.953,111.2h.977l4.4,8.792C443.4,118.038,439.488,115.108,440.953,111.2Z" transform="translate(-410.44 244.884)" fill="#fff"/>
    </g>
    <g id="_x23_060808ff" transform="translate(-3989.996 -2564)">
      <path id="Path_9" data-name="Path 9" d="M498.1.488A127.983,127.983,0,0,1,511.777,0c2.442,23.446,4.4,46.4,6.838,69.849-4.4.488-9.281.977-13.677,1.465C502.5,47.38,500.542,23.934,498.1.488Z" transform="translate(-170.347)" fill="#060808"/>
      <path id="Path_10" data-name="Path 10" d="M577.614,3.631,590.8.7c4.885,22.957,9.769,46.4,14.165,69.361-10.258,2.442-21,3.908-31.261,7.327-12.7,3.908-25.4,8.3-37.611,13.188a305.011,305.011,0,0,0-33.215,17.1c-11.723-20.515-22.958-41.03-34.68-62.034,3.907-1.954,7.815-4.4,11.723-6.838,9.769,17.584,20.027,35.657,29.8,53.242A101.968,101.968,0,0,1,533.165,81.3c-2.442-1.465-4.4-2.442-6.838-3.908-2.931-7.815-5.862-16.119-9.281-23.934,9.281-3.419,18.561-7.327,27.842-10.746,3.908-1.465,9.281-.977,11.723,2.931s3.419,8.792,5.373,13.188c-4.4,1.465-8.3,3.419-12.7,4.885-1.465-2.931-1.954-7.327-4.885-9.281-3.907-1.465-7.815,1.465-11.234,2.442,1.954,4.885,3.908,10.258,5.862,15.142,2.931,1.465,5.373,2.442,8.3,3.908,13.677-5.861,27.354-11.234,42.007-14.165C585.918,43.2,582.01,23.657,577.614,3.631Z" transform="translate(-286.495 2.719)" fill="#060808"/>
      <path id="Path_11" data-name="Path 11" d="M511.477,2.4c4.885.488,10.257.977,15.142,1.465-.489,2.931-.489,5.861-.977,9.281-4.885-.488-10.258-.977-15.142-1.465C510.989,8.261,510.989,5.331,511.477,2.4Z" transform="translate(-122.178 9.323)" fill="#060808"/>
      <path id="Path_12" data-name="Path 12" d="M515.777,2.8c4.885.488,10.258.977,15.142,1.465-.488,2.931-.488,5.861-.977,9.281-4.885-.488-10.258-.977-15.142-1.465C515.288,8.661,515.288,5.731,515.777,2.8Z" transform="translate(-105.474 10.877)" fill="#060808"/>
      <path id="Path_13" data-name="Path 13" d="M522,12.692c.977-2.931,1.465-5.861,2.442-8.792,4.885,1.465,9.769,2.442,14.654,3.908a59.048,59.048,0,0,1-2.442,8.792C531.769,15.623,526.885,14.158,522,12.692Z" transform="translate(-77.506 15.15)" fill="#060808"/>
      <path id="Path_14" data-name="Path 14" d="M555.777,4.7a135.493,135.493,0,0,0,12.7,4.885c-7.815,19.05-15.142,37.611-22.957,56.661a61.63,61.63,0,0,1,16.119,7.815c5.373-9.281,10.746-18.561,16.119-27.354,8.792,4.885,17.1,10.258,25.888,15.142,2.442,1.465,4.885,3.419,5.861,5.861.977,1.954,0,4.4-.977,6.35-3.419,6.35-7.327,12.211-10.746,18.561-.977.977,0,2.442.977,3.419-1.465,2.442-2.931,4.885-4.4,7.815-7.815-4.4-15.631-9.281-23.446-13.677-5.373-2.931-10.746-6.838-16.608-9.281-8.3-3.908-16.119-7.327-24.911-10.746C538.193,48.661,546.985,26.68,555.777,4.7M575.8,77.968a3.975,3.975,0,0,0,.977,5.373c2.931,1.954,6.35,3.419,9.281,5.861,0-.977-.488-2.442,0-3.908,2.931-4.4,5.373-9.281,8.3-13.677.977-1.465.977-3.419,0-4.4-2.442-2.442-5.861-3.908-8.792-5.861C582.154,66.734,578.734,72.6,575.8,77.968Z" transform="translate(-48.76 18.257)" fill="#060808"/>
      <path id="Path_15" data-name="Path 15" d="M511.731,14.729c.977-5.861,6.838-9.281,12.211-8.792,9.281.977,18.562,1.954,27.842,2.442-.977,10.258-1.954,21-2.93,31.261,11.723,1.465,22.957,4.885,34.192,8.3,2.93-10.258,5.373-20.515,8.3-30.773,4.4.977,8.792,2.442,13.188,3.419-3.419,13.188-6.838,26.377-10.746,39.565-15.142-3.908-29.8-8.3-44.938-11.234-13.188-1.465-26.865-2.442-40.053-3.908.977-9.769,1.465-20.027,2.931-30.284m13.188,5.861-1.465,17.584c3.908.488,7.815.488,12.211.977.977-7.815,1.465-15.142,1.954-22.957-2.93,0-6.35-.977-9.281,0A4.181,4.181,0,0,0,524.919,20.59Z" transform="translate(-128.782 22.882)" fill="#060808"/>
      <path id="Path_16" data-name="Path 16" d="M560.408,21.661c1.954-1.954,3.419-3.908,5.373-5.861,2.442,2.442,5.373,4.4,7.815,7.327,1.465,1.954-.977,3.908-2.442,5.373l-2.93-2.931c.488-.977,1.465-1.465,1.954-1.954l-2.931-2.931c-.977,1.465-2.442,2.442-3.419,3.908,1.954,1.954,4.4,3.908,6.35,5.861l-1.954,1.954L556.5,22.15l1.954-1.954C558.943,20.2,559.431,20.685,560.408,21.661Z" transform="translate(56.511 61.376)" fill="#060808"/>
      <path id="Path_17" data-name="Path 17" d="M563.961,57.065C576.173,43.877,587.9,30.688,599.619,17.5c3.419,2.931,6.839,5.861,10.258,9.281-12.211,13.677-24.423,27.354-37.123,41.03-1.954,1.954-4.885,3.419-7.327,2.442,3.908,3.419,7.815,6.838,11.723,10.746,13.677-15.142,27.842-30.284,41.519-45.915,3.419,2.931,6.838,5.861,10.257,9.281-15.631,17.584-31.75,35.169-47.38,52.753-12.211-10.746-23.935-21.98-36.146-32.727,1.954-2.442,3.908-4.4,5.862-6.838,1.954,1.465,3.419,3.908,6.35,4.4C560.054,61.461,562.008,59.019,563.961,57.065Z" transform="translate(13.393 67.98)" fill="#060808"/>
      <path id="Path_18" data-name="Path 18" d="M515.6,22.458c2.442-1.954,5.862-4.4,9.281-3.908,2.442,0,3.908,1.954,5.373,3.419,4.4,5.861,8.792,11.234,13.188,17.1.977.977,2.442.488,3.419,0,1.954,2.442,3.419,4.885,5.373,6.838C540.51,54.7,528.788,63.977,517.064,72.769A73.6,73.6,0,0,0,505.83,83.026c-9.281,10.258-18.561,21-27.842,31.261-7.327-6.35-14.654-13.188-21.98-19.538-5.373-3.908-4.885-12.211-.489-17.1,5.862-6.838,12.211-13.677,18.073-20.515,7.815,6.838,16.119,14.165,23.934,21,4.4-5.373,9.281-10.746,15.142-14.165-6.35-8.3-13.188-16.607-19.538-25.4A214.185,214.185,0,0,0,515.6,22.458m.977,10.746c-2.442,1.465-4.885,3.908-7.327,5.373,3.908,4.885,7.815,10.258,11.723,15.142a3.828,3.828,0,0,0,5.373.488c2.931-1.954,5.862-4.4,8.3-6.35-.977-.488-2.442,0-2.931-.977-3.419-4.4-6.838-9.281-10.746-13.677-.977-1.465-2.931-.977-4.4,0M471.15,74.723a25.669,25.669,0,0,0-5.373,6.838c-.977,1.954,0,4.4,1.465,5.861L480.43,99.145c2.442-2.931,5.373-5.861,7.815-9.281C482.384,84.98,476.523,80.1,471.15,74.723Z" transform="translate(-349.036 71.814)" fill="#060808"/>
      <path id="Path_19" data-name="Path 19" d="M452,35.634c3.419-3.908,6.838-7.327,10.258-11.234,2.442,1.954,4.4,3.908,6.838,5.861-3.419,3.908-6.838,7.327-10.258,11.234C456.4,39.542,454.442,37.588,452,35.634Z" transform="translate(-349.424 94.783)" fill="#060808"/>
      <path id="Path_20" data-name="Path 20" d="M554.7,71.549c18.073-15.142,36.634-29.8,55.2-44.449,2.931,3.419,5.862,6.838,8.792,10.746-18.073,15.142-36.634,29.8-55.2,44.449C560.562,78.388,557.631,74.969,554.7,71.549Z" transform="translate(49.519 105.271)" fill="#060808"/>
      <path id="Path_21" data-name="Path 21" d="M459.358,27.5c2.442,1.954,4.4,3.908,6.838,5.861-3.419,3.908-6.838,7.327-10.258,11.234-2.442-1.954-4.4-3.908-6.838-5.861C452.519,35.315,455.938,31.408,459.358,27.5Z" transform="translate(-360.69 106.825)" fill="#060808"/>
      <path id="Path_22" data-name="Path 22" d="M570.3,33.3a17.356,17.356,0,0,0,4.885.977,15.056,15.056,0,0,0,.489,4.885c-1.465-.488-2.931-.488-4.4-.977C570.3,36.719,570.789,34.765,570.3,33.3Z" transform="translate(110.118 129.356)" fill="#060808"/>
      <path id="Path_23" data-name="Path 23" d="M570.308,36.155c2.931-1.465,6.35-2.442,9.281-1.954-2.442,1.465-6.35.977-7.327,4.4,0,2.931,1.954,5.861,4.4,7.815.977.977,1.954,1.954,3.419,1.465a36.427,36.427,0,0,0,3.419-5.861c1.954,0,3.908-.488,5.862-.488-.488,1.465-1.954,3.419-.488,4.885,1.465,2.442,4.885,1.954,6.839.977-1.465,2.442-3.908,4.4-5.373,6.838a32.754,32.754,0,0,0,4.4,6.838c1.954.977,3.908.977,5.373,2.442A9.522,9.522,0,0,0,596.2,64c.977,1.465,1.465,3.419,2.931,4.885,1.465.488,3.907-.488,4.885,1.465-.977.488-2.442.488-3.419.977,0,1.465.977,2.442,1.465,3.419.977,0,1.954-.488,2.93-.488l2.931,1.465a12.243,12.243,0,0,0-3.419,1.954c-.977.977.488,2.442.977,3.419,2.442,3.419,2.93,7.815,6.838,9.769a18.586,18.586,0,0,0-3.907-8.3c1.954-.488,4.4-1.465,6.35,0s2.442,4.4,2.442,6.838c0,3.419,1.465,6.35,2.931,9.281h-4.4c-.977-1.954-1.954-3.908-3.419-4.885,1.465,4.4,3.907,8.3,5.862,12.211,2.442-1.954,5.861-3.419,7.327-6.838,1.465-.977,3.908,0,5.862,0-1.954,1.954-1.954,4.4-1.954,6.838-1.954,0-4.4-.977-6.35.977-2.931,1.954-5.862,3.419-9.769,3.419-.977-.488-1.465-1.954-1.954-2.931-1.465-3.908-3.907-6.838-4.885-10.746-.488-2.442,2.442-3.419,3.907-4.4-1.954-.488-4.4-.488-6.35-1.465s-2.442-3.908-3.419-5.373c-.977-2.442-3.419-4.4-2.931-6.838-2.93-.488-3.419-3.908-3.907-5.861a16.411,16.411,0,0,1-4.885-7.815,22.011,22.011,0,0,1-4.885-6.838c0-2.931,2.442-4.885,3.907-6.838-1.954.488-3.907-.488-5.862-1.465-2.442,1.465-5.373,2.931-8.3,1.465a12.85,12.85,0,0,1-7.327-7.815C566.4,40.063,568.354,37.132,570.308,36.155Z" transform="translate(94.969 132.362)" fill="#060808"/>
      <path id="Path_24" data-name="Path 24" d="M522.88,37.112a1.049,1.049,0,0,1,1.954-.488c.489,2.442.977,5.373,2.442,7.815s0,5.861-1.465,7.815c7.815,3.908,15.142,8.792,21,15.631,3.419,4.4,5.862,9.769,4.885,15.631-.489,3.908-3.419,7.327-5.373,10.746v51.776A317.249,317.249,0,0,1,598.1,157.76a1.37,1.37,0,0,1,.977,2.442c-6.35,5.861-12.211,11.234-18.561,17.1,0,16.119.488,32.238.488,48.357a3.589,3.589,0,0,1-.977,2.931c-5.862,4.885-11.723,9.769-17.1,14.654H506.273c-6.838,0-14.165,0-21-.488-4.885-3.908-9.769-8.3-15.142-12.7-.977-.977-2.442-1.465-2.442-2.931V177.3c-5.373-5.861-11.723-11.234-18.073-16.607-.977-.488-1.465-1.954-.489-2.442,17.1-6.838,35.169-9.769,53.73-11.723V94.75c-2.442-2.931-4.885-6.35-5.862-10.258-1.465-4.885.489-10.746,3.907-14.654,5.862-6.838,13.677-12.211,21.492-17.1-1.954-2.442-2.931-5.861-.977-8.3.489-2.931.977-4.885,1.466-7.327m.489,13.677c.977-1.465,1.954-2.931,1.954-4.4a7.875,7.875,0,0,0-1.954-3.419c-1.465,1.954-2.442,5.373,0,7.815M503.342,69.35c-2.931,2.931-5.373,6.35-4.885,10.746,0,4.4,2.442,8.3,5.373,11.723a160.625,160.625,0,0,1,40.542-.488c2.931-3.419,4.885-7.327,4.885-11.723,0-4.885-2.931-8.792-5.862-12.211-5.373-5.861-12.7-10.258-19.538-14.165C516.042,58.6,509.2,63,503.342,69.35m.977,24.911v51.288a203.735,203.735,0,0,1,38.588-.488v-50.8a169.891,169.891,0,0,0-38.588,0m.489,53.73c-18.073,1.465-36.146,4.4-53.241,10.746,5.861,5.373,11.723,10.258,17.1,15.631a313.618,313.618,0,0,1,56.661-5.373c17.584,0,35.169,2.442,52.753,5.373,5.862-5.373,11.234-10.746,17.1-15.631a258.631,258.631,0,0,0-27.842-7.327c-10.258-1.954-20.515-4.4-30.773-4.4-10.746-.488-21,.488-31.75.977M469.639,176.81v48.357a328.924,328.924,0,0,1,54.219-5.861,282.3,282.3,0,0,1,53.73,5.373c0-16.119-.489-31.75-.489-47.869a339.977,339.977,0,0,0-54.707-4.885,459.932,459.932,0,0,0-52.753,4.885m1.465,50.8c4.885,3.908,9.769,8.3,14.165,12.211,25.4,0,50.311,0,75.222.488,4.885-4.4,10.258-8.792,15.142-13.188a274.707,274.707,0,0,0-56.661-4.885A312.129,312.129,0,0,0,471.1,227.61Z" transform="translate(-362.667 140.197)" fill="#060808"/>
      <path id="Path_25" data-name="Path 25" d="M611.86,37.283c0-.977,1.954-1.954,1.954-.488.488,2.442.977,5.373,2.442,7.327,1.954,2.442,0,5.861-1.465,8.3,6.838,3.908,13.677,8.3,19.05,14.165,3.419,3.908,6.35,8.3,6.838,13.188,0,5.373-2.442,10.258-5.862,14.165V145.72a322.924,322.924,0,0,1,52.265,11.723c1.465,0,.977,1.954.488,2.442-6.35,5.373-12.211,11.234-18.561,17.1,0,16.119.489,32.727.489,48.846a2.686,2.686,0,0,1-1.465,2.442c-5.373,4.885-10.746,9.281-16.119,14.165a30.039,30.039,0,0,1-6.838.488H573.76c-5.373-4.885-10.746-9.281-16.119-14.165-.977-.977-.977-1.954-.977-3.419V176.981c-5.861-5.373-11.234-10.746-17.1-15.631-.977-.977-1.954-1.465-1.465-2.931,1.954-1.465,4.4-1.954,6.35-2.442,15.142-5.373,31.261-7.815,47.38-9.281V94.921c-4.4-4.4-7.815-10.746-5.862-17.1,1.465-4.885,5.373-9.281,9.281-12.7A101.417,101.417,0,0,1,611.86,53.4c-1.954-2.442-2.931-5.373-1.465-8.3.488-2.931.976-5.373,1.465-7.815m.977,5.861c-1.954,2.442-2.442,5.861,0,8.3.488-1.465,1.954-2.931,1.465-4.4,0-1.954-.977-2.931-1.465-3.908M597.695,64.636c-3.908,3.419-7.815,6.838-9.769,11.723-1.954,5.861.977,11.723,4.885,15.631a160.625,160.625,0,0,1,40.542-.488c4.885-4.885,6.839-12.211,3.419-18.073-5.373-9.281-14.654-14.654-23.446-19.538a125.567,125.567,0,0,0-15.631,10.746m-3.908,29.8V145.72a203.737,203.737,0,0,1,38.588-.488v-50.8a169.908,169.908,0,0,0-38.588,0m-9.281,54.707c-15.142,1.954-29.8,4.4-43.961,9.769,5.862,5.373,11.723,10.258,17.1,15.631,24.423-3.908,48.845-6.35,73.268-4.4a284.685,284.685,0,0,1,35.657,4.885c5.861-5.373,11.723-10.746,17.1-16.119a305.51,305.51,0,0,0-30.284-7.815A163.754,163.754,0,0,0,627,147.185c-13.676-.488-27.842.488-42.5,1.954m-25.888,27.842v48.357a313.714,313.714,0,0,1,36.634-4.885c23.934-1.954,47.869.488,71.8,4.4,0-16.119-.488-31.75-.488-47.869-9.281-1.465-18.073-2.931-27.354-3.908-26.865-2.442-54.219,0-80.6,3.908m1.954,50.8c4.4,3.908,8.792,7.815,13.188,11.234.488.977,1.954.977,2.931.977,24.423,0,49.334,0,73.757.488,4.885-4.4,10.258-8.792,15.142-13.188-9.281-1.465-18.561-2.931-27.842-3.908C611.86,220.942,585.483,223.384,560.572,227.78Z" transform="translate(-15.456 140.027)" fill="#060808"/>
      <path id="Path_26" data-name="Path 26" d="M445.829,37.743c3.419-.977,6.838.488,9.769,2.931,2.442,1.954,4.885,4.885,4.885,8.792,0,1.954-1.465,3.419-2.442,4.885a23.154,23.154,0,0,1-4.885,4.885c2.931-4.885,4.4-11.234,1.465-17.1.977,2.931-.977,6.838-3.907,6.838-3.908-.977-5.862-5.373-5.862-8.792a1.784,1.784,0,0,1,.977-2.442m4.4,3.908c-1.465,0-3.419,2.931-1.465,3.419C449.737,44.582,451.691,41.651,450.225,41.651Z" transform="translate(-377.934 145.427)" fill="#060808"/>
      <path id="Path_27" data-name="Path 27" d="M568.1,38.1c1.465.488,2.931.488,4.4.977a10.754,10.754,0,0,0,.489,3.908,6.94,6.94,0,0,1,2.93.977c0,1.465.489,2.931.489,4.885-1.465-.488-2.931-.488-3.908-.977,0-1.465-.488-2.931-.488-3.908a6.941,6.941,0,0,1-2.931-.977A9.659,9.659,0,0,1,568.1,38.1Z" transform="translate(101.572 148.002)" fill="#060808"/>
      <path id="Path_28" data-name="Path 28" d="M456.3,51.046c5.862-.488,6.838-6.838,9.769-10.746a71.455,71.455,0,0,1,4.4,6.35c-3.419,6.35-7.327,12.7-10.746,19.05-.977,1.954-2.931,1.954-4.885,1.954.977.977,1.465,2.442,2.442,3.419a53.331,53.331,0,0,0-2.931,5.373c3.907,2.931,2.931,8.792,1.465,12.7-.977,2.931-2.931,6.35-6.35,7.815-1.954.977-4.4-.488-5.862-1.954a13.344,13.344,0,0,1-3.908-9.281c1.954,2.442,2.931,5.861,5.862,6.838,4.885-1.465,6.838-7.815,6.838-12.7-2.442.977-3.419,3.419-4.4,5.373a11.645,11.645,0,0,1-2.931-5.373,102.68,102.68,0,0,1,6.35-12.7c-3.419-1.465-6.838-2.931-9.769-3.908-.977-1.465-1.465-3.419-2.442-4.885,4.4,1.465,8.792,3.419,13.188,4.885,2.442-.977,2.931-4.4,4.4-6.35-2.442-.977-2.931-3.419-2.931-5.861-.489-2.442,0-5.861,1.954-7.815a8.477,8.477,0,0,1,6.838-1.465C459.227,43.231,456.784,47.138,456.3,51.046Z" transform="translate(-399.147 156.548)" fill="#060808"/>
      <path id="Path_29" data-name="Path 29" d="M512.631,58.52v65.941a45.4,45.4,0,0,1,4.885,2.442v-6.35c3.419,2.442,6.838,4.885,11.234,5.861,9.281,2.931,19.538,0,28.819,3.419,4.4,1.465,3.419,7.327,7.327,9.281,4.885,3.908,11.234,2.931,16.608,4.885,5.862,3.419,9.281,9.769,12.7,15.631.488,1.465,2.931.977,2.931-.488,0-6.35,0-13.188,1.954-19.05,3.908-11.234,8.3-22.469,12.7-33.215.977-2.442.488-4.885,0-7.327-.488-2.931-1.954-6.35-5.373-7.327-8.3-2.931-17.1-1.954-25.4-4.885a18.308,18.308,0,0,1-8.3-7.815c-1.954-3.908-3.419-8.3-7.327-9.769-12.211-4.885-25.888-.977-38.1-6.35-3.419-1.465-6.838-2.931-9.769-5.373.977-1.465,1.954-3.419.977-4.885a53.331,53.331,0,0,1-2.931-5.373c-.489-1.465-3.419-1.465-3.907,0-.489,1.954-1.465,4.4-1.954,6.35A9.933,9.933,0,0,0,512.631,58.52Zm24.423,10.258c7.815.977,16.119.488,23.935,2.442,2.442.488,5.373,1.465,6.838,3.908,1.954,3.419,3.419,7.327,5.862,10.258,3.419,3.908,8.3,5.373,13.188,6.35,5.862,1.465,12.211,1.465,18.073,2.931,2.442.488,3.419,2.931,3.908,4.885a10.885,10.885,0,0,1,0,6.838c-3.419,8.792-6.839,17.1-10.258,26.377-2.442,6.838-4.4,14.165-4.4,21-2.931-4.4-5.862-8.3-9.769-11.234-4.885-2.931-11.234-1.465-16.119-4.885-3.908-1.954-3.419-7.815-7.327-9.769-8.3-3.908-18.073-1.954-26.865-2.931a30.226,30.226,0,0,1-16.119-8.3c8.792-6.35,13.677-17.584,14.166-28.33,0-8.792-3.908-17.1-9.281-23.934A43.7,43.7,0,0,0,537.053,68.778Zm-20.026-5.861c6.35,6.838,11.723,16.119,11.234,25.888a31.92,31.92,0,0,1-11.234,23.934Zm-2.442-11.723c.977.977,2.931,2.442,1.465,4.4-.977,1.465-1.954,0-2.442-.977A12.425,12.425,0,0,1,514.585,51.193Z" transform="translate(-125.286 181.312)" fill="#060808"/>
      <path id="Path_30" data-name="Path 30" d="M518.323,74.7c.977-.977,1.954-1.954,1.954-2.931.489-1.954-.977-2.931-1.954-4.4a8.253,8.253,0,0,0,1.465-4.885c0-1.954-1.954-3.908-2.931-5.373A3.687,3.687,0,0,0,514.9,53.7c-.977.977-1.954,1.954-1.954,3.419-1.465,1.465-2.931,3.419-2.931,5.373s.977,3.419,1.465,4.885c-.977.977-1.954,1.954-1.954,3.419S511,73.727,511.484,74.7A20.111,20.111,0,0,0,506.6,84.961c0,3.419,1.954,6.35,3.419,9.281.489-.488.977-.488,1.954-.977.489-.488,1.465-.488,1.954-.977l.977-.488h0s2.931,1.465,4.4,2.442c1.954-2.931,3.419-5.861,3.419-8.792C522.719,81.054,520.765,77.634,518.323,74.7Z" transform="translate(-137.328 208.601)" fill="#060808"/>
      <path id="Path_31" data-name="Path 31" d="M576.8,58.3c4.4-2.931,9.281-5.373,13.677-8.3,2.442,0,4.4.488,6.839.488-4.4,2.931-8.792,5.861-13.677,7.815C581.685,59.281,579.242,58.792,576.8,58.3Z" transform="translate(135.368 194.228)" fill="#060808"/>
      <path id="Path_32" data-name="Path 32" d="M436.254,55.819c.489-.977.489-2.442,1.465-3.419v4.4a3.7,3.7,0,0,0-1.954.977c-.488-.488-.977-.977-1.465-.977A2.538,2.538,0,0,0,436.254,55.819Z" transform="translate(-418.181 203.551)" fill="#060808"/>
      <path id="Path_33" data-name="Path 33" d="M434.8,55.3c-.977-.488-.489-3.419.977-2.442A1.784,1.784,0,0,1,434.8,55.3Z" transform="translate(-418.197 204.559)" fill="#060808"/>
      <path id="Path_34" data-name="Path 34" d="M435.3,52.8a55.844,55.844,0,0,1,15.631,3.419c2.442.977,3.419,2.931,4.885,4.885a124.924,124.924,0,0,0-13.188-2.442C438.719,58.173,436.765,54.754,435.3,52.8Z" transform="translate(-414.297 205.104)" fill="#060808"/>
      <path id="Path_35" data-name="Path 35" d="M576.8,58.756a4.615,4.615,0,0,1,5.373-4.4c2.931,0,6.35.488,8.3,2.442-2.442.488-5.861-1.465-7.327,1.465-.977,4.4,1.465,8.792,4.885,11.723,1.954-1.465,2.931-3.419,4.4-5.861,1.954.488,3.907.977,6.35,1.465-.977,1.954-2.442,3.908-2.931,5.861.488,3.908,1.954,8.3,2.931,12.211a22.575,22.575,0,0,0,3.419-3.419,33.676,33.676,0,0,1,4.885,1.954c-1.954,2.931-4.885,5.861-8.3,5.861-1.954,0-5.862.977-6.35-1.465-.977-4.4-2.442-9.281-3.419-13.677-1.954,0-4.4.488-6.35-.977Q576.8,65.35,576.8,58.756Z" transform="translate(135.368 210.872)" fill="#060808"/>
      <path id="Path_36" data-name="Path 36" d="M581.877,54.3c1.465.977,2.931,1.465,4.4,2.442-.488,1.465-.977,3.419-1.465,4.885-1.465-.977-2.442-1.465-3.907-2.442A14.456,14.456,0,0,1,581.877,54.3Z" transform="translate(151.294 210.931)" fill="#060808"/>
      <path id="Path_37" data-name="Path 37" d="M438.831,55.607c3.907-.977,8.3.977,11.723,2.931,2.442,1.954,4.4,4.885,3.419,8.3a27.161,27.161,0,0,1-4.4,8.3c1.465-5.373,1.465-12.211-3.419-16.608,1.954,2.442,1.465,6.838-1.465,7.815-4.4,0-7.815-3.908-8.792-7.815,0-1.954,1.954-2.442,2.931-2.931m2.442,7.327a3.939,3.939,0,0,0,1.465-4.4C440.784,59.514,439.807,61.468,441.273,62.933Z" transform="translate(-411.966 214.998)" fill="#060808"/>
      <path id="Path_38" data-name="Path 38" d="M436.508,60.242c2.442.488,3.907-1.465,5.373-2.442.977,1.465,1.954,2.442,2.442,3.908,1.465.977,2.442,1.954,3.908,2.931,2.931-.488,6.35.488,9.281,1.465-.977,4.4-2.442,8.792-3.419,13.188a36.434,36.434,0,0,1-5.862-3.419,15.677,15.677,0,0,0-.977-8.3,31.6,31.6,0,0,0-4.4,3.908,1.705,1.705,0,0,1,.489.977,61.013,61.013,0,0,1-4.4,5.861c-2.442.488-4.4-.977-6.35-1.954,3.419-4.885,7.327-9.281,12.7-11.723a9.765,9.765,0,0,0-6.35-.977c-.977-.488-1.465-1.954-2.442-3.419M449.7,69.034c.977,0,.977-1.954,0-1.954C448.719,66.592,448.719,69.034,449.7,69.034Z" transform="translate(-424.785 224.527)" fill="#060808"/>
      <path id="Path_39" data-name="Path 39" d="M579.665,59.6a45.022,45.022,0,0,0,3.908,2.442c-.489,1.465-.977,3.419-1.465,4.885-1.465-.977-2.442-1.954-3.908-2.931A46.107,46.107,0,0,0,579.665,59.6Z" transform="translate(140.806 231.519)" fill="#060808"/>
      <path id="Path_40" data-name="Path 40" d="M433.143,68.623a9.186,9.186,0,0,1,9.281-5.373,24.049,24.049,0,0,1,8.3,2.931c-.977,3.908-.977,7.815-2.442,11.234-1.954.977-4.4-.488-6.838-.488A75.821,75.821,0,0,0,443.4,66.669a7.782,7.782,0,0,0-6.35,6.35C435.585,71.553,432.655,70.576,433.143,68.623Z" transform="translate(-422.886 245.454)" fill="#060808"/>
      <path id="Path_41" data-name="Path 41" d="M581.848,64.176c2.931-1.465,6.35-.488,9.281.977,1.465.977,3.419,1.954,3.907,3.908-2.442-.977-4.885-2.931-7.815-2.442-1.465.488-1.954,1.954-1.954,3.419-.488,3.908.977,7.327,2.931,10.746a10.992,10.992,0,0,0,.488-6.838c1.954.488,3.907.977,5.373,2.442a65.958,65.958,0,0,1,1.954,13.677,109.892,109.892,0,0,0,10.746-2.442,42.927,42.927,0,0,0,4.885,2.931c-3.908.977-7.815,1.954-11.234,2.931-.977.488-1.954.488-2.931.977,0,2.442.488,4.885.488,7.327,3.419-.488,5.862,2.931,7.327,5.373,2.442,3.419,0,8.792-3.419,10.258a14.074,14.074,0,0,0-.489-11.723c-4.4,3.908-1.954,9.769-1.954,14.165-2.442-.977-4.4-1.465-6.839-2.442-.977-7.327-1.465-14.654-2.442-21.492-.488-1.954.977-3.419,2.931-4.4-1.465-.488-2.442-.977-3.908-1.465,0-1.954-.488-3.908-.488-5.373-4.885-.488-7.815-5.861-8.792-10.258C579.405,70.038,578.917,66.13,581.848,64.176Z" transform="translate(145.951 246.481)" fill="#060808"/>
      <path id="Path_42" data-name="Path 42" d="M579.248,64.3l2.931,2.931c-.488.977-.488,2.442-.977,3.419.488.488.977,1.465,1.954,1.954-.488,1.465-.488,2.931-.977,4.4-.977-.977-1.465-1.954-2.442-2.442a10.759,10.759,0,0,1,.488-3.908C578.271,69.185,578.759,66.742,579.248,64.3Z" transform="translate(143.178 249.777)" fill="#060808"/>
      <path id="Path_43" data-name="Path 43" d="M466.585,67.314a10.368,10.368,0,0,1,12.7,1.465,11.527,11.527,0,0,1,3.419,7.815v19.05a75.631,75.631,0,0,0-21,0V73.664A10.364,10.364,0,0,1,466.585,67.314Z" transform="translate(-311.744 255.555)" fill="#060808"/>
      <path id="Path_44" data-name="Path 44" d="M551,74.522c.977-4.885,5.862-9.281,10.746-8.792,4.885,0,9.281,4.885,10.257,9.281v21a75.629,75.629,0,0,0-21,0Z" transform="translate(35.146 255.186)" fill="#060808"/>
      <path id="Path_45" data-name="Path 45" d="M455.7,77.173c.489-4.885,3.907-10.746,9.281-10.746,4.885-.488,9.281,4.4,9.281,9.281,0,6.838.489,13.188.489,20.027-6.35.977-12.7,1.465-19.05,2.442Z" transform="translate(-335.052 257.908)" fill="#060808"/>
      <path id="Path_46" data-name="Path 46" d="M471.619,68.5a8.421,8.421,0,0,1,11.723.488,13.345,13.345,0,0,1,3.907,9.281V98.3c-6.35-.977-12.7-1.465-19.05-2.442,0-6.838.489-13.188.489-20.027A9.941,9.941,0,0,1,471.619,68.5Z" transform="translate(-286.495 257.786)" fill="#060808"/>
      <path id="Path_47" data-name="Path 47" d="M545.1,77.169c.489-5.373,3.908-11.234,9.769-10.746,4.885,0,8.792,4.885,8.792,9.281,0,6.838.489,13.188.489,20.027-6.35.977-12.7,1.465-19.05,2.442C545.1,90.846,545.1,84.007,545.1,77.169Z" transform="translate(12.227 257.912)" fill="#060808"/>
      <path id="Path_48" data-name="Path 48" d="M557.989,75.708c0-4.885,4.4-9.769,9.281-9.281,5.373,0,9.281,5.861,9.281,10.746v21c-6.35-.977-12.7-1.465-19.05-2.442C557.5,88.9,557.989,82.057,557.989,75.708Z" transform="translate(60.396 257.908)" fill="#060808"/>
      <path id="Path_49" data-name="Path 49" d="M431.3,68.791a83.548,83.548,0,0,1,15.631,0,9.723,9.723,0,0,1,5.861,3.908c-5.373,0-10.746.488-16.119,0C434.719,71.722,433.254,70.257,431.3,68.791Z" transform="translate(-429.835 265.801)" fill="#060808"/>
      <path id="Path_50" data-name="Path 50" d="M436.373,70.3c1.954.977,3.419,2.931,5.373,2.442A15.061,15.061,0,0,1,452,74.7a129.016,129.016,0,0,1-.977,14.165c-.489,2.931-3.908,2.931-5.862,2.442,1.465,1.465,3.419,2.931,4.885,4.4.977,1.954,0,3.908,0,6.35-.489,2.442.489,5.373-.977,7.815,1.954,1.954.977,4.885.488,7.327a15.059,15.059,0,0,1,0,9.281,16.037,16.037,0,0,1,.489,8.3c-1.465,1.954-4.4,2.442-6.838,3.419a6.932,6.932,0,0,1,3.908,4.4c2.931,0,6.35.488,8.3,2.931a13.079,13.079,0,0,1,2.442,11.234c-.489,2.931-3.908,3.908-6.838,3.908-2.931-.488-6.35-.977-8.3-3.419,2.442.488,4.885,1.954,7.327.977a5.3,5.3,0,0,0,1.954-4.4,12.787,12.787,0,0,0-2.442-8.3c-2.442.977-4.4,2.442-6.35,3.419a45.171,45.171,0,0,0-4.885-2.442c1.465-.977,3.419-1.954,2.931-3.908,0-2.931-3.419-3.908-5.373-4.885,2.442-.977,5.373-1.465,7.815-2.931.977-2.442.489-5.373,0-8.3-.977-1.465-2.931-2.931-3.419-4.885.977.488,2.442,1.465,3.419,1.954,0-1.954.489-4.4,0-5.861a13.166,13.166,0,0,1-3.907-3.419,11.5,11.5,0,0,1,3.907.977,5.393,5.393,0,0,0,0-3.908c-2.442,0-3.907-1.954-4.4-3.908.977,0,2.442.488,3.907.488,1.465-.488.977-2.442.977-3.419h0c0-3.908,1.465-8.3-.489-11.723-1.954,2.442-1.465,5.861-.977,8.792-1.954-.488-4.885-.977-5.862-3.419s.489-4.885,1.465-7.327a21.167,21.167,0,0,0,1.954-9.281c1.465.977,2.931,1.465,3.908,2.442,0,1.954-.489,3.908.977,5.861a60.01,60.01,0,0,0,.977-13.188c-2.442.488-4.4.488-6.838.977-1.465,0-2.442,1.465-3.907,1.465a26.834,26.834,0,0,1-4.4-3.419C433.931,74.7,434.908,72.254,436.373,70.3Z" transform="translate(-431 273.084)" fill="#060808"/>
      <path id="Path_51" data-name="Path 51" d="M583.157,78.368c1.954-1.954,4.4-1.465,6.839-.488a15.435,15.435,0,0,1,6.838,6.838c-2.442-1.465-4.4-3.419-6.838-3.908-1.954-.488-2.931,1.465-3.419,2.931a19.263,19.263,0,0,0,.489,11.723c1.954-1.954,1.954-4.4,1.954-6.838,1.954.977,3.907,1.954,4.885,3.908a137.315,137.315,0,0,1-.488,14.165c3.419,0,6.838-.488,10.746,0,1.465.977,2.931,2.442,4.4,3.419-4.4,0-9.281.488-13.677.488-1.465,0-1.465,1.465-1.465,2.442a20.043,20.043,0,0,1-.488,5.373c3.419,0,4.885,3.908,5.862,6.35,1.954,3.908-.977,8.792-5.373,9.281,2.442-3.419,3.419-7.815,1.954-11.234-1.465,1.465-3.419,3.419-3.419,5.373-.488,2.931-.488,5.373-.977,8.3-1.954-1.465-4.4-2.442-6.35-3.908.488-7.327,1.465-14.654,1.954-21.98,0-1.954,1.954-2.931,3.908-3.419-.977-.488-2.442-1.465-3.419-1.954a23.778,23.778,0,0,1,.489-5.861c-4.4-1.465-6.35-6.35-6.35-10.746C580.715,84.23,580.715,80.811,583.157,78.368Z" transform="translate(151.48 299.208)" fill="#060808"/>
      <path id="Path_52" data-name="Path 52" d="M438.042,82.8l2.931,2.931a33.654,33.654,0,0,0-1.465,3.908l1.954,1.954L440,95.988c-.977-.977-2.442-1.954-3.419-2.931.489-1.465.977-2.442,1.465-3.908A8.576,8.576,0,0,0,435.6,87.2,9.985,9.985,0,0,0,438.042,82.8Z" transform="translate(-413.131 321.641)" fill="#060808"/>
      <path id="Path_53" data-name="Path 53" d="M433.454,86.8l3.419,3.419a20.42,20.42,0,0,1-1.954,4.885L431.5,91.685A14.631,14.631,0,0,1,433.454,86.8Z" transform="translate(-429.058 337.179)" fill="#060808"/>
      <path id="Path_54" data-name="Path 54" d="M580.3,97.192a26.675,26.675,0,0,1,2.931-8.792c-.977,5.861.488,12.211,5.373,15.631-1.465-1.954-1.954-4.885,0-6.838.977-1.465,2.931-.977,4.4-.488a10.247,10.247,0,0,1,6.35,6.35c0,1.954-1.954,2.931-3.419,3.419a15.635,15.635,0,0,1-12.211-2.442c-2.442-1.465-4.4-3.908-3.419-6.838M593,99.146c-.977.977-.977,2.442-.977,3.908A2.045,2.045,0,0,0,593,99.146Z" transform="translate(147.983 343.395)" fill="#060808"/>
      <path id="Path_55" data-name="Path 55" d="M434.683,94.684c2.931-3.419,8.3-3.908,12.211-2.931,2.931.488,6.35,2.442,6.838,5.373s.977,6.35,0,9.281c-.977-5.861-4.885-11.234-10.746-13.188,2.442,1.465,4.4,4.885,2.442,7.327-3.419,2.442-8.792.488-11.234-2.442-1.465-.977-.489-2.442.489-3.419m5.861,4.885c0-1.465,0-2.931-.977-3.908C438.1,96.638,438.1,99.569,440.544,99.569Z" transform="translate(-421.494 354.695)" fill="#060808"/>
      <path id="Path_56" data-name="Path 56" d="M596.6,96.251c1.465-2.442,5.373-2.442,7.815-1.465,2.931,1.465,5.373,2.931,6.838,5.861-2.442-1.465-4.4-3.908-7.327-2.931-2.442,1.465-2.931,4.4-3.419,6.838,0,1.465-.488,3.908.977,4.885a32.985,32.985,0,0,0,6.839-.977c1.465,1.465,2.442,2.931,3.907,3.908-1.465.488-3.907.488-3.907,2.442-1.465,2.931,1.954,4.885,3.419,6.35-2.931,0-5.862-.488-8.792.488a27.548,27.548,0,0,0-1.954,5.861c-.977,2.931,1.954,4.885,1.465,7.327l-2.931-2.931a23.807,23.807,0,0,0-1.954,5.373c.488,1.954,2.442,2.931,2.442,4.885a21.237,21.237,0,0,0-3.419-1.954c-.977.977-.977,2.442-1.465,3.419a5.372,5.372,0,0,1,2.931,4.885c-1.465-.488-2.442-1.465-3.908-1.465-.977.488-1.465,1.954-1.954,2.931-.977,3.908-3.907,7.327-2.931,11.723a14.716,14.716,0,0,0,3.908-8.3c1.954.977,4.4,2.931,4.4,5.373,0,2.931-2.931,4.885-4.4,6.838a22.548,22.548,0,0,0-4.4,7.327c-.977-.977-1.954-2.442-2.931-3.419a13,13,0,0,0,1.465-5.861c-2.931,3.908-3.908,8.3-5.862,12.211,3.419.488,6.839,2.442,10.258,1.465,1.954.977,2.442,2.931,3.419,4.4-2.931-.488-4.885,1.465-6.839,2.931-1.465-1.954-2.442-3.908-4.885-4.4a13.2,13.2,0,0,1-8.3-4.885c-.488-.977.488-1.954.977-2.931,1.954-3.419,2.93-7.327,4.885-10.746,1.465-1.954,4.4-.488,6.35,0-1.465-2.931-4.885-5.861-2.442-9.281,1.954-2.931,1.954-7.815,4.885-9.769-1.465-2.442.977-4.885,1.954-6.838a14.634,14.634,0,0,1,2.93-8.792,23.008,23.008,0,0,1,1.954-8.3c2.442-1.465,4.885-.977,7.815-1.465a7.844,7.844,0,0,1-2.442-5.373c-2.931-.977-5.862-2.442-6.838-5.373A13.12,13.12,0,0,1,596.6,96.251Z" transform="translate(128.27 365.828)" fill="#060808"/>
      <path id="Path_57" data-name="Path 57" d="M441.027,94.4c2.442.977,5.373.488,7.327,1.954,1.954,6.838,3.419,14.165,5.373,21,.489,1.954-.977,3.419-2.442,4.885a9.2,9.2,0,0,1,3.907.977l1.465,5.861c4.885,0,8.3,3.908,9.769,8.3.977,2.931,2.442,6.838.977,9.769-.977,2.442-4.4,2.931-6.838,2.442-2.931-.488-5.862-1.465-7.815-3.908,2.931.488,5.862,1.954,8.792.977,1.465-1.465.977-3.908.977-5.861-.977-2.931-1.954-6.35-4.4-8.3a10.743,10.743,0,0,0,.977,6.838,9.387,9.387,0,0,1-5.861-1.954c-1.465-4.4-2.931-9.281-4.4-13.677a88.065,88.065,0,0,1-10.258,3.908c-1.465-.488-3.419-1.465-4.885-1.954,3.419-1.465,7.327-2.931,10.746-4.4.977-.488,1.954-.488,2.931-1.465,0-2.442-1.465-4.885-1.954-7.327-3.419.977-6.35-1.954-8.3-4.4-2.931-2.931-1.465-8.792,1.954-10.258-.977,3.908-.489,8.3,1.954,11.234C444.934,104.658,442,99.285,441.027,94.4Z" transform="translate(-420.512 366.702)" fill="#060808"/>
      <path id="Path_58" data-name="Path 58" d="M583,99.319a11.414,11.414,0,0,1,3.419-3.419c.977,1.465,1.465,2.931,2.442,4.4-1.465.977-2.442,2.442-3.908,3.419A17.348,17.348,0,0,0,583,99.319Z" transform="translate(159.452 372.529)" fill="#060808"/>
      <path id="Path_59" data-name="Path 59" d="M579.166,100.619a22.563,22.563,0,0,1,3.419-3.419c.488.977,1.465,2.442,1.954,3.419l-2.931,2.931,1.465,2.931a22.577,22.577,0,0,0-3.419,3.419c-.488-1.465-1.465-2.442-1.954-3.908l2.93-2.931A10.677,10.677,0,0,1,579.166,100.619Z" transform="translate(138.864 377.579)" fill="#060808"/>
      <path id="Path_60" data-name="Path 60" d="M450.577,108.749a10.884,10.884,0,0,1,6.838,0l-11.723,7.327c-2.442,1.954-5.862.488-8.792.488C441.3,114.122,445.692,111.191,450.577,108.749Z" transform="translate(-408.081 420.249)" fill="#060808"/>
      <path id="Path_61" data-name="Path 61" d="M437.568,109.9a13.165,13.165,0,0,1,3.907,3.419c-.977,0-1.465.488-1.954,1.954-1.465,0-4.885-1.465-2.442-2.931.489.488,1.465,1.954,1.954,2.442C439.034,112.831,438.057,111.365,437.568,109.9Z" transform="translate(-410.703 426.913)" fill="#060808"/>
      <path id="Path_62" data-name="Path 62" d="M439.747,113.77c.489-1.465,1.465-3.908,3.419-3.419,2.931.488,6.838,0,9.769,1.954,1.954,2.931,3.419,6.838,5.373,9.769.977,1.954,2.931,4.4,1.954,6.838a4.876,4.876,0,0,1,2.442,1.954,84.986,84.986,0,0,1,5.373,8.792c.977,2.442-1.954,3.908-3.419,5.373,2.931.488,6.35-.488,8.3,2.442,2.442,3.908,5.373,8.3,8.3,12.211-4.4,3.419-8.792,7.327-13.188,10.746-1.954,0-3.908-.488-5.862-.488,3.908-2.931,7.815-5.861,11.723-9.281-1.954-2.931-3.907-5.373-5.862-8.792a8.58,8.58,0,0,0-4.885-4.4c.489,2.931,2.442,5.861,4.4,8.3-1.954.488-4.4,1.465-6.35.488-2.442-1.465-2.931-3.908-2.931-6.35a22.237,22.237,0,0,0-3.907-9.281c1.465,0,2.931-.488,4.4-.488a19.128,19.128,0,0,0,3.907,4.885c-1.465-4.4-4.885-8.3-7.327-12.7a5.158,5.158,0,0,0-2.442.977,33.691,33.691,0,0,0-3.907-1.465c1.465-.977,5.373-.977,4.4-3.419-3.419-2.931-7.815-4.885-11.234-7.815-1.954-2.442-3.419-4.885-2.442-6.838m5.862.977c-1.465,3.908,2.931,6.838,5.373,9.281l-4.4-8.792A1.514,1.514,0,0,0,445.609,114.747Z" transform="translate(-398.229 428.416)" fill="#060808"/>
      <path id="Path_63" data-name="Path 63" d="M573.9,112.6c4.885,1.465,9.769,3.419,14.654,4.885,1.954,1.465,2.931,3.908,3.908,5.861a88.676,88.676,0,0,1-14.654-5.373C576.342,117.485,574.877,115.042,573.9,112.6Z" transform="translate(124.103 437.401)" fill="#060808"/>
      <path id="Path_64" data-name="Path 64" d="M592.088,115.483a5.292,5.292,0,0,1,5.373,0c3.419,2.442,4.885,6.838,4.885,11.234-1.954-1.954-1.954-5.861-5.373-6.838-1.954,0-3.907,1.954-4.885,3.419-1.954,2.442-2.931,5.373-3.907,8.3,2.442-.977,3.907-2.931,5.373-4.885.977,1.954,2.442,3.908,2.442,5.861-2.442,3.908-4.885,7.815-7.815,11.723,2.93,1.954,6.35,3.419,9.281,5.373.488,1.954.977,3.419,1.465,5.373-4.4-1.954-8.3-4.885-12.7-6.838-2.442.977-3.419,3.908-5.373,5.861,2.442,1.465,2.442,4.4,1.954,6.35,0,2.442-.977,5.373-2.931,6.838s-4.885,1.954-6.839.977a11.2,11.2,0,0,0,7.327-8.792c-5.862,0-7.815,5.861-10.746,9.281-.977-1.954-2.442-4.4-3.419-6.838,4.4-5.861,8.792-11.723,13.188-18.073.977-1.954,3.419-1.465,4.885-.977-.488-.977-1.465-2.442-1.954-3.419.977-1.465,2.442-3.419,3.419-4.885-2.93-3.419-1.954-8.3-.488-12.211C587.692,119.879,589.646,116.948,592.088,115.483Z" transform="translate(94.192 445.753)" fill="#060808"/>
      <path id="Path_65" data-name="Path 65" d="M454.8,122.616c.977-.488,2.931-1.465,3.419,0,3.419,3.908,6.35,8.3,9.769,12.7,1.465,1.954,2.931,4.4,1.465,6.35-1.954,3.419-6.35,4.885-10.258,4.885.977-1.954,3.419-1.465,4.4-3.419s-.977-3.419-1.465-4.885c-2.931-3.908-5.862-7.327-8.792-11.234a14.626,14.626,0,0,0-1.954,4.885H446.5a27.546,27.546,0,0,1,1.954-5.861C449.919,124.081,452.85,123.592,454.8,122.616Z" transform="translate(-370.789 473.3)" fill="#060808"/>
      <path id="Path_66" data-name="Path 66" d="M450.3,122.4c1.465.488,2.931.488,4.4.977a16.615,16.615,0,0,1,.489,4.885c-1.465-.488-3.419-.488-4.885-.977A8.323,8.323,0,0,0,450.3,122.4Z" transform="translate(-356.028 475.469)" fill="#060808"/>
      <path id="Path_67" data-name="Path 67" d="M563.038,125.7a44.271,44.271,0,0,1,7.815,5.373c1.954,1.465,3.419,3.908,2.442,5.861-.488.977-.977,2.442-1.465,3.419,1.954-.489,2.931-2.442,3.419-4.4,1.465,1.954,3.419,5.373.977,7.815-2.931,1.954-6.838.977-10.257,1.954-.977-1.465-1.954-3.419-2.931-4.885,2.442-1.954,5.373-4.4,5.373-7.815C565.968,131.562,562.549,129.119,563.038,125.7Z" transform="translate(81.723 488.288)" fill="#060808"/>
      <path id="Path_68" data-name="Path 68" d="M460.358,129.654c1.954-1.954,4.4-1.954,6.838-1.954-2.931,3.419-5.862,7.327-8.792,10.746-1.954,2.931-5.373,2.442-8.3,2.931A58.925,58.925,0,0,1,460.358,129.654Z" transform="translate(-356.805 496.058)" fill="#060808"/>
      <path id="Path_69" data-name="Path 69" d="M588.558,138.958A44.42,44.42,0,0,1,597.35,128.7c-1.465,4.885-4.4,9.281-4.4,14.654a12.172,12.172,0,0,0,8.3,1.465l-.488-1.465,5.861-1.465c2.442,0,3.908,2.931,4.885,4.885-5.862,2.442-14.166,3.908-18.561-1.954.488,2.442.977,5.373,2.442,7.327.977,1.465,1.954,2.442,2.931,3.908v4.885c-3.907-3.419-7.327-6.838-11.723-9.281a51.72,51.72,0,0,0-5.862,4.885c-.489,1.954-.489,3.908-1.465,5.861-.488-1.465-.488-2.442-.977-3.908-1.465.977-3.419,1.954-4.4,3.908,0,1.954.488,3.419-.488,5.373a12.241,12.241,0,0,0-1.954-3.419c-.977.488-1.465.977-2.442,1.465-.977.977,0,2.442.488,3.419a9.059,9.059,0,0,0-.977,3.419c-.977-.977-1.465-3.419-2.931-3.419-2.931,1.465-4.885,3.419-7.327,5.373,2.931,1.954,4.885,5.373,8.3,6.35.977,1.954.488,3.908.488,5.373-1.954-1.954-4.885-.977-7.327-.977-.488-1.954,0-4.4-1.954-5.861-2.442-2.442-4.885-5.861-4.885-9.281,1.465-1.954,3.419-2.931,5.373-4.4,1.954-.977,3.419-2.931,5.862-2.931,0-2.931,2.931-3.908,5.373-4.885a11.55,11.55,0,0,1,6.839-5.861,19.712,19.712,0,0,1,6.35-6.35c2.93-.488,4.885,2.442,7.327,3.908C589.046,146.773,586.6,142.865,588.558,138.958Z" transform="translate(42.526 499.942)" fill="#060808"/>
      <path id="Path_70" data-name="Path 70" d="M457.462,137.015c2.442-3.419,5.373-7.327,9.769-7.815,2.931,2.442,5.862,5.373,8.792,8.3a8.763,8.763,0,0,1,2.442,3.419c0,1.954-1.465,3.419-2.931,4.885,2.442,0,4.885-.977,6.838-.977,2.442.977,3.907,3.419,5.373,4.885s3.907,2.442,3.907,4.885c2.442,0,3.907,1.465,4.885,3.419.489,1.465,2.442,1.954,3.419,2.442a12.608,12.608,0,0,1,4.4,4.4,20.491,20.491,0,0,1,6.838,4.4c.977,2.442-.977,5.373-1.465,7.815a8.169,8.169,0,0,1,5.861-.489c1.954-2.442,4.4-4.885,7.815-4.4a15.091,15.091,0,0,1,9.769,5.373c1.465,2.442.489,5.373-1.465,7.327a10.878,10.878,0,0,1-8.3,4.4c1.954-1.954,5.373-2.931,5.373-5.861-.977-3.419-4.4-5.373-7.327-6.35-.977-.489-2.442-.977-2.931.488-.489,1.954-.977,4.4-1.465,6.35-1.954.977-3.419,1.465-5.373,2.442,0-1.465.977-3.908-.977-4.885-1.954-1.954-4.885,0-6.838.977.489-2.931,2.931-5.373,2.442-8.3-1.954-1.954-3.907-2.931-5.862-4.4-1.954-.488-3.907.488-5.862-.977.977-.489,2.442-.977,3.419-1.465-1.465-1.465-2.931-3.419-4.885-3.908a14.452,14.452,0,0,1-4.885.977,5,5,0,0,1,2.931-2.442c-.977-.977-1.954-3.419-3.908-1.954-1.465.977-3.419.488-4.885.488a12.948,12.948,0,0,0,2.442-2.931c0-1.465-1.465-2.442-2.442-3.419-2.931-2.442-5.373-6.35-9.769-6.838a13.36,13.36,0,0,0,6.35,6.35c-1.954,1.465-3.907,2.931-5.862,2.442-2.442-.488-3.907-2.931-4.4-5.373a21.054,21.054,0,0,0-6.35-8.3l4.4-1.465c1.465,1.465,2.931,2.931,4.885,3.419-2.931-3.419-6.35-6.35-9.281-9.769-1.954,2.931-4.885,5.861-4.885,9.281-1.465.977-3.419.977-5.373,1.465,1.465-2.442.489-4.885-.489-7.327,2.931-.489,4.4-.977,5.862-.977M485.3,152.646C483.838,155.088,487.746,152.646,485.3,152.646Z" transform="translate(-350.978 501.884)" fill="#060808"/>
      <path id="Path_71" data-name="Path 71" d="M464.1,136.388c1.465,0,2.931-.488,3.907-.488a9.817,9.817,0,0,1,1.954,3.908,6.194,6.194,0,0,0,2.931-.488,17.349,17.349,0,0,1,1.954,4.4c-1.465,0-2.931.488-4.4.488-.489-1.465-.977-2.442-1.465-3.908a6.2,6.2,0,0,0-2.931.489C465.565,139.319,464.588,137.854,464.1,136.388Z" transform="translate(-302.421 527.911)" fill="#060808"/>
      <path id="Path_72" data-name="Path 72" d="M551.732,138.3c3.907,3.908,7.327,7.327,10.746,11.234.977,1.954.488,4.885.977,6.838a61.348,61.348,0,0,1-10.746-11.723C551.244,143.185,551.244,140.742,551.732,138.3Z" transform="translate(36.856 537.234)" fill="#060808"/>
      <path id="Path_73" data-name="Path 73" d="M464.4,142.188c1.465,0,2.931-.488,4.885-.488a17.348,17.348,0,0,1,1.954,4.4c-1.465,0-3.419.488-4.885.488A19.144,19.144,0,0,1,464.4,142.188Z" transform="translate(-301.256 550.441)" fill="#060808"/>
    </g>
    <g id="_x23_f5ff12ff" transform="translate(-3901.097 -2381.318)">
      <path id="Path_74" data-name="Path 74" d="M465.215,45.7c-2.442-2.442-1.954-5.861,0-8.3.489.977,1.465,2.442,1.954,3.419C467.657,42.773,466.192,44.238,465.215,45.7Z" transform="translate(-393.412 -37.4)" fill="#ffbd00"/>
      <path id="Path_75" data-name="Path 75" d="M554.421,37.5a29.06,29.06,0,0,1,1.954,3.908c0,1.465-.977,2.931-1.465,4.4C551.979,43.361,552.955,39.454,554.421,37.5Z" transform="translate(-45.939 -37.012)" fill="#ffbd00"/>
      <path id="Path_76" data-name="Path 76" d="M463.734,55.331C469.6,48.981,476.923,44.1,484.25,39.7c7.327,3.908,14.165,8.3,19.538,14.165,2.931,3.419,5.862,7.327,5.862,12.211,0,4.4-2.442,8.3-4.885,11.723a160.628,160.628,0,0,0-40.542.488c-2.931-3.419-5.373-7.327-5.373-11.723C458.361,62.169,460.8,58.261,463.734,55.331Z" transform="translate(-411.958 -28.466)" fill="#f9c33e"/>
      <path id="Path_77" data-name="Path 77" d="M558.853,50.446c4.885-3.908,9.769-7.815,15.142-10.746,8.792,4.885,18.073,10.746,23.446,19.538,3.419,5.861,1.465,13.677-3.419,18.073a161.173,161.173,0,0,0-40.542.488c-3.907-3.908-6.838-9.769-4.885-15.631C551.037,57.773,554.945,53.865,558.853,50.446Z" transform="translate(-65.513 -28.466)" fill="#f9c33e"/>
      <path id="Path_78" data-name="Path 78" d="M460,48.874a169.906,169.906,0,0,1,38.588,0v50.8a203.735,203.735,0,0,0-38.588.488Z" transform="translate(-407.247 2.902)" fill="#f9c33e"/>
      <path id="Path_79" data-name="Path 79" d="M549.4,48.874a169.908,169.908,0,0,1,38.588,0v50.8a203.737,203.737,0,0,0-38.588.488Z" transform="translate(-59.968 2.902)" fill="#f9c33e"/>
      <path id="Path_80" data-name="Path 80" d="M502.442,59.929a227.55,227.55,0,0,1,31.75-.977c10.258,0,20.515,2.442,30.773,4.4q13.921,2.931,27.842,7.327c-5.862,5.373-11.723,10.258-17.1,15.631a276.168,276.168,0,0,0-52.753-5.373A317.848,317.848,0,0,0,466.3,86.306c-5.373-5.373-11.235-10.746-17.1-15.631C466.3,64.325,484.369,61.883,502.442,59.929Z" transform="translate(-449.2 45.577)" fill="#f9c33e"/>
      <path id="Path_81" data-name="Path 81" d="M582.073,60.848c14.165-1.465,28.819-2.931,42.984-1.465a163.774,163.774,0,0,1,26.377,3.908c10.257,1.954,20.026,4.885,30.284,7.815-5.862,5.373-11.723,10.746-17.1,16.119a284.686,284.686,0,0,0-35.657-4.885c-24.423-1.954-49.334.488-73.268,4.4-5.373-5.373-11.234-10.746-17.1-15.631C552.277,65.733,567.419,62.8,582.073,60.848Z" transform="translate(-101.921 45.635)" fill="#f9c33e"/>
      <path id="Path_82" data-name="Path 82" d="M453.073,68.785A385.164,385.164,0,0,1,505.826,63.9a339.979,339.979,0,0,1,54.707,4.885c.489,16.119.489,31.75.489,47.869a392.563,392.563,0,0,0-53.73-5.373,255.889,255.889,0,0,0-54.219,5.861c-.489-16.119,0-32.238,0-48.357m47.869,5.861a10.1,10.1,0,0,0-4.885,6.838v21.98a75.629,75.629,0,0,1,21,0V84.415a11.527,11.527,0,0,0-3.419-7.815c-3.419-4.4-9.281-4.885-12.7-1.954M466.75,86.857v21c6.35-.977,12.7-1.465,19.05-2.442,0-6.838-.489-13.188-.489-20.027,0-4.885-4.4-9.769-9.281-9.281-5.373,0-9.281,5.373-9.281,10.746m64.476-8.792a10.389,10.389,0,0,0-3.419,7.327c0,6.838-.488,13.188-.488,20.027,6.35.977,12.7,1.465,19.05,2.442V87.834a13.345,13.345,0,0,0-3.907-9.281C540.018,75.134,534.645,75.134,531.226,78.065Z" transform="translate(-435 65.541)" fill="#f9c33e"/>
      <path id="Path_83" data-name="Path 83" d="M542.589,68.727c26.377-4.4,53.242-6.35,80.107-3.419a263.3,263.3,0,0,1,27.353,3.908c0,16.119.489,31.75.489,47.869-23.446-3.908-47.869-6.35-71.8-4.4a313.719,313.719,0,0,0-36.634,4.885c.489-16.608.489-32.727.489-48.846m42.984,12.7v21.492a75.629,75.629,0,0,1,21,0v-21c-.977-4.885-4.885-9.281-10.257-9.281a11.446,11.446,0,0,0-10.746,8.792M556.754,86.8v21c6.35-.977,12.7-1.465,19.05-2.442,0-6.838-.488-13.188-.488-20.027,0-4.885-3.908-9.769-8.792-9.281-5.862-.488-9.77,5.373-9.77,10.746m61.057-1.465c0,6.838-.489,13.188-.489,20.027,6.35.977,12.7,1.465,19.05,2.442v-21c0-4.885-3.908-10.746-9.281-10.746C622.207,75.077,618.3,80.45,617.811,85.335Z" transform="translate(-88.325 65.598)" fill="#f9c33e"/>
      <path id="Path_84" data-name="Path 84" d="M453.2,79.632a319.115,319.115,0,0,1,47.869-5.373,274.708,274.708,0,0,1,56.661,4.885c-4.885,4.4-10.258,8.792-15.142,13.188-25.4,0-50.311,0-75.222-.488C462.481,87.936,457.6,83.54,453.2,79.632Z" transform="translate(-433.662 105.493)" fill="#f9c33e"/>
      <path id="Path_85" data-name="Path 85" d="M542.6,79.425c25.4-4.4,51.288-6.838,77.176-3.908a272.527,272.527,0,0,1,27.842,3.908c-4.885,4.4-10.258,8.792-15.142,13.188-24.423,0-49.334,0-73.757-.488a3.588,3.588,0,0,1-2.931-.977C551.392,87.24,546.508,83.333,542.6,79.425Z" transform="translate(-86.383 105.7)" fill="#f9c33e"/>
    </g>
    <g id="_x23_ff0207ff" transform="translate(-3869.836 -2331.495)">
      <path id="Path_86" data-name="Path 86" d="M511.477,47.6c.977.977,2.931,2.442,1.465,4.4-.977,1.465-1.954,0-2.442-.977A12.425,12.425,0,0,1,511.477,47.6Z" transform="translate(-242.338 -47.6)" fill="#de384e"/>
      <path id="Path_87" data-name="Path 87" d="M456.577,78.977h.489c6.838.488,14.165,0,21,.488v61.545L495.653,158.6c5.862-5.861,11.723-11.723,17.584-18.073V78.977H534.73v64.476c0,.977.489,2.442-.489,2.931-8.3,8.3-16.607,17.1-24.911,25.4,8.3,8.792,17.1,17.1,25.4,25.888v89.876h59.1V249.936h21v37.611h13.677V249.936h21.492v37.611h17.1V249.936h21.492v37.611h45.915V249.936h21v37.123h15.142V249.936h21v37.611h15.631V249.936h21.98v37.123H948.451V270.451H892.279v-72.78L917.19,172.76v-.488l-24.911-24.911c-.977-.977-.488-1.954-.488-2.931V78h21.492v59.592a3.589,3.589,0,0,0,.977,2.931l16.608,16.607,17.1-17.1V78.488h15.142A32.247,32.247,0,0,0,969.944,78c0,22.469,0,44.938.488,67.407-8.3,8.792-17.1,17.1-25.4,25.888,8.3,8.3,17.1,17.1,25.4,25.888v36.146H948.94v-29.8c-5.861-6.35-11.723-12.211-17.584-18.073-5.862,5.861-12.211,11.234-18.073,17.1v46.892h57.149v59.592H455.6V250.425h56.661v-46.4c0-.977-.977-1.465-1.465-2.442L494.677,185.46,476.6,203.533c0,10.258,0,20.027.489,30.284-6.838,0-14.165.488-21,.488V197.672c8.3-8.792,17.1-17.1,25.4-25.888-8.3-8.3-17.1-16.608-25.4-24.911,0-22.469,0-44.938.488-67.9m64.965,132.86c-4.885,1.465-6.35,8.3-2.931,11.723,3.419,3.908,10.746,1.954,11.723-2.931,1.954-5.373-3.908-10.746-8.792-8.792m0,18.073c-4.885,1.465-6.35,8.3-2.442,11.723,3.419,3.908,10.746,1.954,11.723-2.931,1.465-5.373-4.4-11.234-9.281-8.792m110.879,23.446a8.4,8.4,0,0,0,7.815,7.815,7.715,7.715,0,0,0,7.815-7.815H632.421m-154.84,18.561v16.607H512.75V271.917H477.581m106.483,36.146h15.631a8.033,8.033,0,0,0-7.815-7.815c-3.908,0-7.327,3.419-7.815,7.815m21.492,0h15.631a8.821,8.821,0,0,0-7.327-7.815c-4.4-.488-7.815,3.419-8.3,7.815m54.219,0h15.631a8.821,8.821,0,0,0-7.327-7.815c-4.4-.488-7.815,3.419-8.3,7.815m21.492,0H696.9c0-3.908-3.907-7.815-8.3-7.815C685.174,300.247,681.755,304.155,681.266,308.063Z" transform="translate(-455.6 70.49)" fill="#de384e"/>
    </g>
    <g id="_x23_f8ff54ff" transform="translate(-3655.404 -2051.122)">
      <path id="Path_88" data-name="Path 88" d="M499.5,105" transform="translate(-499.5 -105)" fill="#f8ff54"/>
    </g>
    <g id="_x23_272929ff" transform="translate(-3856.01 -1909.47)">
      <path id="Path_89" data-name="Path 89" d="M458.77,134C461.212,134,457.3,136.442,458.77,134Z" transform="translate(-458.431 -134)" fill="#272929"/>
    </g>
    <path id="Path_90" data-name="Path 90" d="M624.814,64.042c-15.631,8.3-33.215,18.561-46.892,28.33-26.376,18.561-49.823,38.588-65.941,56.661A186.867,186.867,0,0,0,494.4,172.968a114.482,114.482,0,0,0-9.769,21.98,3.692,3.692,0,0,0-.489,1.954,4.919,4.919,0,0,0-.489,1.465,19.9,19.9,0,0,1-.977,3.419,113.075,113.075,0,0,0-5.373,29.8V248.19a122.876,122.876,0,0,0,2.442,15.142c.489,2.931,1.465,5.861,1.954,5.861v.977a1.513,1.513,0,0,0,.489.977c.489.488.489,1.954.977,2.931a104.476,104.476,0,0,0,17.1,27.842l8.792,8.792,1.465.977H745.462l1.465-1.465a36.789,36.789,0,0,0,4.4-4.4c14.165-14.165,22.958-28.819,27.353-45.426a130.852,130.852,0,0,0,2.442-14.654,105.727,105.727,0,0,0,0-17.584,140.524,140.524,0,0,0-4.885-24.911l-.977-2.931v-1.465a4.921,4.921,0,0,1-.488-1.465,5.054,5.054,0,0,0-.488-1.954v-.488a151.65,151.65,0,0,0-5.862-14.165c-4.885-10.746-13.188-22.469-24.423-35.169-3.419-3.908-12.7-13.188-17.1-17.1-13.677-12.7-28.819-24.423-45.426-36.146-10.257-6.838-23.446-15.142-35.657-21.98-1.465-.977-1.954-.977-2.442-.977-.977-.488-.489-.488-1.954-1.465-.489-.488-1.954-.977-2.442-1.465C638,66,629.7,61.6,629.7,61.6,628.721,61.6,627.256,62.577,624.814,64.042Z" transform="translate(-4241.142 -2324.711)" fill="#f9c33e" stroke="#020200" stroke-miterlimit="10" stroke-width="0.5"/>
    <path id="Path_91" data-name="Path 91" d="M516.573,50.3a50.016,50.016,0,0,0,14.654,3.908c7.815.977,16.119.488,23.935,2.442,2.442.488,5.373,1.465,6.838,3.908,1.954,3.419,3.419,7.327,5.862,10.746,3.419,3.908,8.3,5.373,13.188,6.35,5.862,1.465,12.211,1.465,18.073,2.931,2.442.488,3.419,2.931,3.908,4.885a10.885,10.885,0,0,1,0,6.838l-10.258,26.377c-2.442,6.838-4.885,13.677-4.885,21-2.931-4.4-5.373-8.3-9.769-11.234-4.885-2.931-11.234-1.465-16.608-4.885-3.908-1.954-3.419-7.815-7.327-9.769-8.3-3.908-18.073-1.954-26.865-2.931-5.862-.977-12.211-3.908-16.119-8.3a36.593,36.593,0,0,0,14.165-28.33C525.854,64.465,521.946,56.65,516.573,50.3Z" transform="translate(-4109.455 -2368.607)" fill="#de384e"/>
    <path id="Path_92" data-name="Path 92" d="M539.1,136.085c3.419-1.465,6.838-3.419,10.257-4.885,13.188,21.492,25.888,42.984,38.1,64.965-2.931,3.908-8.3,4.4-12.211,6.838C562.546,181.022,550.823,158.554,539.1,136.085Z" transform="translate(-4001.076 -2054.346)" fill="#060708"/>
    <g id="Group_25" data-name="Group 25" transform="translate(-3638.308 -1911.118)">
      <path id="Path_93" data-name="Path 93" d="M659.794,135.311a33.657,33.657,0,0,0,3.908-1.465,3.939,3.939,0,0,1,4.4,1.465c9.769,19.538,19.05,39.565,28.819,59.592v.489c.488,1.954,2.931,4.885.977,6.838a403.478,403.478,0,0,1-191.963,31.261c-1.954,0-2.931-1.465-2.931-3.419v-1.954a3.339,3.339,0,0,1,3.419-3.419c4.885,0,9.769.488,14.654.488a3.339,3.339,0,0,0,3.419-3.419c0-6.838.489-13.188.489-20.027a3.3,3.3,0,0,0-1.954-2.931c-2.442-.977-5.373-.977-8.3-.977a3.339,3.339,0,0,1-3.419-3.419h0c0-1.954,1.465-2.931,3.419-3.419,7.815,0,16.607-1.465,22.469,3.419a2.538,2.538,0,0,1,.977,1.954c1.954,8.792.488,17.584.977,26.377a3.339,3.339,0,0,0,3.419,3.419c5.373,0,11.234,0,16.607-.488a3.485,3.485,0,0,0,2.931-4.885c-3.419-6.838-2.931-15.631-2.442-23.446.489-4.4,4.885-6.838,9.281-6.838,8.792-.977,17.584-2.442,26.377-2.931a3.714,3.714,0,0,1,3.907,2.931c1.465,9.281,2.931,18.073,4.885,27.354a3.019,3.019,0,0,0,3.908,2.442c3.419-.488,6.838-1.465,10.257-1.954a3.02,3.02,0,0,0,2.442-3.908c-1.465-9.281-4.885-18.073-5.862-27.842a3.714,3.714,0,0,1,2.931-3.908c8.792-1.465,17.584-4.885,26.377-6.838,3.419-.977,7.815-.977,9.769,2.931,3.419,7.815,5.862,16.119,9.281,23.934a3.322,3.322,0,0,0,3.907,1.954c4.885-.977,9.281-2.931,13.677-4.885,1.954-.489,2.442-2.442,1.954-4.4-7.327-19.05-16.119-37.123-23.446-55.684C657.352,138.242,658.329,136.288,659.794,135.311Zm-30.772,56.172a78.209,78.209,0,0,0,5.373,19.05,2.778,2.778,0,0,0,3.419,1.954c2.931,0,5.862-.977,9.281-1.465a3.5,3.5,0,0,0,2.442-4.4c-1.954-5.861-3.908-12.211-5.862-18.073a.478.478,0,0,0-.488-.489c-2.442-3.908-7.327-1.465-11.234-.488A3.714,3.714,0,0,0,629.021,191.483Zm-56.172,10.258c-.977,4.885,0,9.769.488,14.165,0,.488,0,.488.488.977.977,5.373,8.3,8.3,13.188,6.35,1.954-.977,3.419-1.954,3.419-3.908a119.271,119.271,0,0,0-2.931-19.05c-.488-1.465-1.954-2.931-3.419-2.931-2.931,0-6.35,0-9.281,1.954C573.338,199.787,572.849,200.276,572.849,201.741Z" transform="translate(-503 -133.663)" fill="#060708"/>
    </g>
    <path id="Path_94" data-name="Path 94" d="M481.708,134.2a49.668,49.668,0,0,1,13.677,6.35c-1.954,2.442-1.954,6.838-4.885,7.815-4.4-1.954-8.3-3.908-12.7-5.861A43.311,43.311,0,0,1,481.708,134.2Z" transform="translate(-4239.199 -2042.693)" fill="#060708"/>
    <path id="Path_95" data-name="Path 95" d="M495.349,150.365c-4.4-1.954-8.792-3.419-13.188-4.885-.488-3.419,1.465-6.838,3.419-9.281,4.4,1.954,8.792,3.419,12.7,5.861a34.066,34.066,0,0,1-2.931,8.3" transform="translate(-4222.556 -2034.924)" fill="#060708"/>
    <g id="Group_26" data-name="Group 26" transform="translate(-3789.729 -1891.101)">
      <path id="Path_96" data-name="Path 96" d="M487.631,143.815c2.931-4.885,10.258-7.815,15.142-4.885,8.3,3.908,17.1,7.327,25.888,11.723-4.4,10.746-9.769,21-13.188,31.75,7.327,2.442,14.654,5.861,21.98,7.815l1.954-.977c4.4-9.769,6.838-20.027,11.234-29.8,3.908-1.465,9.281.488,11.723,3.419-2.931,10.746-7.327,21-9.281,32.238,4.885,1.465,9.769,2.442,14.165,3.908,2.931-10.746,6.35-21.492,8.792-32.727,3.907-.489,7.815.977,12.211,1.465-.489,11.723-5.862,22.957-5.862,34.68,4.4,0,9.769,2.931,13.188.488,1.954-10.258,3.908-21,5.862-31.75a111.148,111.148,0,0,1,12.7.977c-1.954,14.165-3.908,28.819-5.862,42.984A387.958,387.958,0,0,1,472,171.168,218.706,218.706,0,0,1,487.631,143.815Zm11.723,6.838a113.4,113.4,0,0,0-10.746,20.027c3.907,1.954,8.3,3.908,12.7,5.861,4.885-7.327,8.3-15.631,11.723-23.446C508.634,151.141,503.75,148.211,499.354,150.653Z" transform="translate(-472 -137.761)" fill="#060708"/>
    </g>
    <path id="Path_97" data-name="Path 97" d="M518.8,142.754a131.67,131.67,0,0,0,13.677-1.954c.488,2.931,1.465,5.861,1.954,9.281a51.716,51.716,0,0,1-15.142,2.442A65.422,65.422,0,0,0,518.8,142.754Z" transform="translate(-4079.932 -2017.055)" fill="#060708"/>
    <path id="Path_98" data-name="Path 98" d="M514.3,142.477c4.885,0,9.769-.489,14.654-.977v9.769c-4.885.489-9.769.489-14.654.489Z" transform="translate(-4097.413 -2014.336)" fill="#060708"/>
    <g id="Group_27" data-name="Group 27" transform="translate(-3743.815 -2249.923)">
      <path id="Path_99" data-name="Path 99" d="M597.165,83.35c6.838-3.908,12.7-11.234,13.677-19.05,4.4.488,8.792,1.465,11.723,4.885,2.442,2.442,2.931,6.35,3.419,9.281,1.465-.488,3.419-1.465,5.373-.977,4.885.488,8.3,6.35,6.35,10.746-.488,1.465-1.954,2.442-2.931,3.908,6.839,6.35,14.166,13.188,17.1,22.469,1.954-2.442,4.4-4.885,8.3-4.885s7.327,2.931,10.746,4.4c2.442.977,4.4-.488,6.838-.977.977.488.488,1.465.977,1.954a21.594,21.594,0,0,1-.977,9.769c-2.931,4.885-8.792,6.35-13.677,5.861,0,3.908-.977,7.815-3.907,10.258s-6.838,2.931-10.257,2.442a23.03,23.03,0,0,1-2.931,7.327c3.419,3.908,8.3,6.35,12.7,8.792a19.969,19.969,0,0,1,8.792,11.234,10.21,10.21,0,0,1-1.954,8.3c-2.442,2.442-6.838,2.442-9.769.977-3.908-2.442-3.908-9.281.488-11.723.977-.488,2.442-.488,3.907-.977a13.719,13.719,0,0,0-4.885-5.861c-4.885-2.442-10.746-2.931-16.607-3.419-7.327,7.327-18.561,8.792-28.331,6.35-.977,1.954-1.465,4.4-3.419,5.861a8.437,8.437,0,0,1-11.723-.977c-1.954-1.954-1.954-4.4-2.442-6.838a36.407,36.407,0,0,1,3.419-5.861,58.767,58.767,0,0,1-7.815-13.188c-1.954-5.861-3.419-12.211-5.373-18.561-.977-2.931-1.465-6.35-3.419-9.281-.977-1.954-2.931-2.931-4.885-4.4,3.908-2.442,8.3-4.4,12.7-3.908,3.907.977,6.838,4.4,8.792,7.815a48.392,48.392,0,0,1,8.3-5.373c-1.465-2.931-2.442-5.861-.489-8.792,2.442-3.908,8.792-4.4,11.723-.977,1.954,1.954,1.954,4.885,1.465,7.815,7.815.977,13.677,6.838,16.607,13.677,1.954,4.4,1.954,9.769,2.931,14.654a78.028,78.028,0,0,0,2.442,10.258c4.885-8.3,7.815-18.073,5.373-27.842a37.915,37.915,0,0,0-14.654-20.027,26.422,26.422,0,0,0-12.7-5.373c-7.327-1.465-15.142-.977-22.469,0a56.45,56.45,0,0,0-21.492,9.281,40.967,40.967,0,0,0-12.7,13.188c1.954.977,3.908,1.465,4.885,3.908.977,1.954.489,3.908,0,5.861v.488c2.442.977,5.373,1.954,6.838,3.908,1.954,2.931,2.931,6.838,3.419,10.746a9.943,9.943,0,0,0-8.792,2.442c-4.885,4.885-5.862,12.211-10.258,17.584-.977,1.465-2.442,1.954-3.908,2.931a16.648,16.648,0,0,1-9.769,0c1.465,5.861,2.931,12.211,6.838,17.1A34.693,34.693,0,0,0,562,189.833c.977-1.465,1.954-2.442,2.931-3.908v70.338c0,2.931.977,6.35,3.907,7.327a6.932,6.932,0,0,1,4.4,3.908,7.762,7.762,0,0,1,4.885-3.908c2.931-.977,3.908-4.4,3.908-6.838V222.56c-.977-3.908-4.885-6.35-8.792-6.838.977-1.465,1.465-2.442,2.442-3.908,3.419-3.419,7.815-5.861,12.7-5.861,0-2.931.488-6.35,2.931-8.792,2.442-1.954,4.885-3.908,5.862-6.838v56.172h25.4a26.913,26.913,0,0,1,8.3-9.769c-1.954-1.954-3.907-4.4-6.35-5.373-3.907-1.954-7.815-1.954-12.211-1.954v-2.931c0-2.442.488-5.373,2.442-7.327,1.954-2.442,4.885-3.419,7.815-4.4-1.465-3.908-2.442-7.815-.489-11.723,1.465-2.931,4.885-3.908,8.3-5.861a44.945,44.945,0,0,0,12.212-9.281c3.419,4.4,8.3,7.327,13.188,9.769,2.931,1.465,5.862,2.442,7.327,5.373,1.954,3.419.488,7.815-.977,11.234,2.931.977,5.862,1.954,7.815,4.4,1.465,1.954,1.954,4.4,2.442,6.35v3.908c-3.908,0-7.815,0-11.723,1.954-2.931.977-4.885,3.419-6.838,5.861a40.051,40.051,0,0,1,8.3,9.769h23.934V155.153c0-3.908-.977-8.3-3.419-11.234-1.465-1.954-3.907-2.931-5.862-3.908,1.954-2.931,3.908-6.35,7.327-7.815,2.442-1.465,4.885-1.465,7.815-1.954v-4.4a7.112,7.112,0,0,1,2.931-4.4c2.442-2.442,4.4-4.885,6.838-7.327V252.844c0,3.908-.488,8.3,2.442,11.234,2.442,1.465,4.885,1.954,6.35,4.885.977-2.931,3.907-3.419,6.35-4.885,2.931-2.931,2.442-7.327,2.442-10.746V139.522c2.442,3.908,5.862,6.35,8.792,10.258a27.861,27.861,0,0,1,.488,6.35c6.35-.488,12.211,3.908,14.654,9.769l-2.931,1.465c-5.373,2.931-6.839,9.769-6.35,15.631,9.281,7.327,16.607,18.073,18.073,30.284a64.479,64.479,0,0,1-1.954,27.353,50.587,50.587,0,0,1-8.3,16.119,1.832,1.832,0,0,1-2.931,0c0-1.954.977-3.908,1.954-5.861,1.954-3.419,2.931-7.327,3.908-11.234-1.465,0-3.419,0-4.885-.977-2.442-2.442-2.442-5.861-1.954-9.281.977-9.281,4.4-18.073,3.908-27.354a22.887,22.887,0,0,0-6.839-14.165,1.706,1.706,0,0,1-.488-.977v73.757a17.549,17.549,0,0,1-.977,5.373,24.193,24.193,0,0,1-6.35,12.7c-2.442,1.954-5.862,2.931-9.281,3.419-3.907.977-5.862,4.4-7.327,7.815-1.465-3.908-3.908-7.327-8.3-8.3-3.907-.488-7.815-1.954-9.769-5.373-3.419-3.908-4.4-9.769-5.373-14.654-1.465-.488-1.465,1.465-1.954,2.442a43.654,43.654,0,0,1-53.73,27.354,42.637,42.637,0,0,1-29.307-30.284h-2.442c-.977,6.35-2.442,13.677-8.3,18.073-3.419,2.442-8.3,1.954-11.234,4.4-1.954,1.465-2.931,3.908-3.908,6.35-1.465-3.908-3.907-7.327-8.3-8.3-3.419-.488-7.327-1.954-9.769-4.4-3.419-4.4-4.885-10.258-5.862-15.631H537.572a27.285,27.285,0,0,1-12.211,16.119c-5.862,3.908-13.677,4.885-20.515,3.908-8.3-1.465-15.631-7.327-19.538-14.654a20.411,20.411,0,0,1-1.954-4.885H481.4c2.442-11.234-.977-22.957,1.465-34.192a28.362,28.362,0,0,1,10.746-14.165c5.861-4.885,13.188-7.327,18.073-13.188,3.419-4.4,1.954-10.258,2.442-15.142V167.853c0-4.885.489-9.769-1.954-14.165a11.552,11.552,0,0,0-6.35-5.373,1.706,1.706,0,0,1-.977-.488c1.954-2.931,3.908-6.35,7.327-8.3,2.442-1.465,4.885-1.465,7.327-1.465,0-1.954-.489-4.4.488-6.35s2.442-2.931,3.908-4.4c1.954-1.954,3.419-3.908,5.373-5.861V247.471h8.792c.489-2.931-.977-6.35,1.465-8.3a23.662,23.662,0,0,1,0,8.3H553.2V228.91a16.648,16.648,0,0,0-3.419-10.746c-1.465-1.954-3.908-2.931-5.862-3.908,0-.488.489-.977.977-1.465,2.931-4.885,8.3-8.792,14.165-8.3,0-2.442,0-5.373.977-7.815-8.792-6.838-15.142-17.1-18.073-28.33a54.966,54.966,0,0,1-.488-20.027,60.916,60.916,0,0,1,6.838-20.027,62.73,62.73,0,0,1,14.165-19.538C569.811,96.538,584.465,90.677,597.165,83.35Zm10.258-6.838c-5.373,7.815-14.654,11.234-22.469,15.631-12.211,6.35-25.888,13.188-33.7,25.4s-13.188,26.377-12.7,41.03c.489,13.188,7.815,26.377,18.073,34.68.977-.977,1.954-1.465,2.931-2.442a61.033,61.033,0,0,1-5.861-4.4c-7.815-6.838-10.746-17.584-12.211-27.842-.489-4.4.977-10.258,5.373-11.234,4.4-1.465,8.792,3.908,6.35,7.815-.977,2.442-5.373,3.908-6.35.977a8.313,8.313,0,0,0,3.419-.488,3.2,3.2,0,0,0,.489-5.373c-1.954-1.954-4.885-.488-6.35,1.465-1.465,2.931-1.465,6.35-.977,9.769,3.908,2.442,9.769,1.954,12.7-1.954,3.419-4.4,4.885-10.258,7.815-14.654,2.442-3.419,6.35-5.861,10.258-5.861-.977-3.419-1.465-7.327-4.885-9.281-1.954-1.465-4.4-1.465-6.838-1.954,1.465-1.465,2.931-2.931,2.442-5.373,0-2.931-3.907-3.908-5.862-4.4,4.4-9.281,12.7-15.631,21.492-20.027a64.957,64.957,0,0,1,25.4-6.35c9.281,0,19.05.977,26.376,6.35s13.188,13.188,15.142,21.98a38.116,38.116,0,0,1-6.839,29.8c-.488,0-.977,0-.977.488-2.931-6.35-3.419-13.677-3.908-20.515-.488-6.35-4.4-11.723-9.281-16.119-2.931-2.442-6.35-2.931-10.258-3.419.977-2.442,1.954-5.861-.489-7.815a5.706,5.706,0,0,0-9.769,2.442c-.977,2.931.977,4.885,2.442,6.838a25.061,25.061,0,0,0-11.234,7.327c-2.442-2.931-3.908-6.838-7.815-8.3-3.419-.977-7.327.488-10.258,1.954a18.26,18.26,0,0,1,5.862,9.769c1.954,6.838,3.419,14.165,5.862,21,1.465,4.885,4.4,9.281,7.815,13.677a5.158,5.158,0,0,0,2.442-.977,34.532,34.532,0,0,1-6.35-12.7c.489-5.373.489-10.258,1.465-15.631a32.12,32.12,0,0,1,8.3-11.234c4.885-3.908,11.723-3.908,17.584-1.954,3.907.977,7.327,3.908,7.815,7.815s-3.419,8.792-7.815,7.327c-2.931,0-5.373-4.885-2.442-6.35.977,1.465.977,3.419,2.442,4.4,3.419.977,6.838-3.419,4.885-6.35-.977-2.931-4.885-3.908-7.327-2.442-3.907,1.465-5.373,5.861-4.885,9.769,0,5.373-.977,12.211-6.35,15.142,2.931,1.465,5.862,3.419,9.281,2.442,4.885-.977,7.815-5.373,9.769-9.281a6.942,6.942,0,0,1,.977,2.931c.488,3.908.488,8.3,2.93,11.723a16.9,16.9,0,0,0,4.885,5.373c-6.838,5.861-17.1,7.815-25.888,5.373,0,.488.489,1.954.489,2.442,9.281,2.442,20.515.977,27.354-6.35a41.006,41.006,0,0,1,15.142,2.442c2.442,1.465,4.885,1.954,6.35,3.908,1.954,2.442,3.907,6.35,1.954,9.281-1.954,0-.488-2.931-2.442-2.931-4.885-.488-5.861,7.815-1.465,9.281,2.442.977,6.35.977,7.815-1.465,1.954-3.419.977-7.815-1.465-11.234a20.809,20.809,0,0,0-9.769-7.327c-3.907-1.954-7.327-4.4-9.769-8.3,1.954-2.442,2.931-5.861,3.419-9.281,3.908.977,8.3.977,11.234-1.954,2.931-2.442,3.419-6.838,2.931-10.746,4.4.488,9.281.488,12.211-2.442,3.419-2.442,2.931-7.327,2.931-10.746a12.028,12.028,0,0,1-5.862.488c-3.419-.977-5.862-4.4-9.769-4.885-2.931-.488-5.862,1.465-7.815,3.908-1.954,1.954,0,4.885,1.465,6.35,1.954,1.954,5.373.488,5.861-1.954,0-1.954-3.419-2.442-1.954-4.4,1.954,0,3.908,2.442,3.908,4.4,0,3.908-4.885,6.35-8.3,3.908-3.419-1.954-3.419-6.35-4.4-9.769-2.93-9.281-10.746-16.119-18.073-21.98,1.465-.977,3.907-1.954,4.4-3.419,1.954-3.908-.977-8.792-5.373-9.281-2.442,0-3.907,1.465-5.862,2.442-.488-3.419-.488-7.327-2.931-10.258s-6.35-4.4-9.769-4.885C611.33,69.673,609.865,73.092,607.422,76.511Zm-9.769,49.822c-.977,3.419-.977,7.327-1.465,11.234-1.465,6.838,2.931,12.7,6.838,17.584,3.419.488,5.373,3.908,8.792,3.908,7.327,1.954,15.142,0,21-3.908-.977-1.954-2.931-3.419-3.907-5.373-1.465-2.931-1.954-6.838-2.442-10.258-3.419,4.4-8.792,7.815-14.654,5.861-2.442-.977-5.373-2.442-6.838-4.885a9.06,9.06,0,0,0,5.862-3.419c1.954-3.908,1.954-8.3,1.954-12.211,0-4.885,3.907-9.769,9.281-9.281-3.419-1.954-7.327-1.954-11.234-1.465C604.492,115.1,600.1,120.961,597.653,126.334Zm141.652,68.872c2.93,11.723-3.419,23.446-2.931,35.169,0,1.954.977,4.4,2.931,4.885,3.419.488,5.373-4.885,3.907-7.327-1.465-1.465-2.931.488-4.4.977-1.465-.488-.488-1.954.488-2.442a4.328,4.328,0,0,1,6.839,2.442c.977,3.908-2.442,6.838-2.931,10.258-.977,5.373-3.907,9.769-5.373,14.654,10.257-12.211,12.7-29.307,10.257-44.938a41.745,41.745,0,0,0-10.746-20.515C737.351,190.81,738.817,192.764,739.305,195.206ZM633.31,219.629c.488,3.908,3.907,6.35,7.327,7.815,2.931-1.465,6.839-3.908,6.839-7.815.488-4.885-3.419-8.792-6.839-11.234C636.73,211.325,632.822,215.233,633.31,219.629Zm-136.279,7.815c-2.931,4.885-2.931,11.234-2.931,16.607H510.22V217.187C505.335,219.14,499.962,222.071,497.031,227.444ZM630.38,260.171H603.515A38.415,38.415,0,0,0,617.191,275.8c0-2.931.489-6.35,3.419-7.327,4.885-1.465,10.746.488,15.63-.488a23.029,23.029,0,0,0,7.327-2.931c1.954,2.931,3.908,6.35,2.931,10.258,1.954-.488,4.885-.488,6.35.977,1.465.977,1.465,2.931,1.954,4.4a44.877,44.877,0,0,0,22.958-20.515H650.895a83.566,83.566,0,0,0-6.35-11.234,7.6,7.6,0,0,0-3.908-2.931C635.264,248.936,631.845,254.309,630.38,260.171Zm-148.49-.488c2.442,6.838,7.327,13.188,14.165,16.119a26.838,26.838,0,0,0,26.376-1.954,30.629,30.629,0,0,0,10.746-14.165l-.488.488c-3.419,6.35-9.281,11.723-16.608,13.188,0-1.954.977-4.4,0-6.35a7.785,7.785,0,0,0-5.861-4.4c-2.442,7.327-11.723,10.258-18.561,7.327-4.4-1.954-6.838-5.861-9.769-10.258C482.378,260.171,481.889,260.171,481.889,259.682Zm2.442.488,4.4,5.861c5.373,6.35,18.073,3.419,19.538-4.885,5.373.488,10.258,4.885,9.769,10.258,4.885-2.442,9.769-6.35,12.211-11.234Zm116.252-.977a41.632,41.632,0,0,0,65.941,21.98c6.838-5.373,12.7-13.188,14.654-21.98-.977.488-1.465,1.465-1.954,1.954-5.373,9.769-14.654,18.073-25.888,21-.488-1.954,0-4.4-2.442-5.373-2.442-1.465-5.373,0-7.815.977.488-1.954,1.465-3.908,1.465-5.861a10.242,10.242,0,0,0-1.954-5.373c-1.954.977-3.419,1.954-5.373,1.954-5.373.977-10.746-.488-16.119.488-2.931.488-3.908,4.885-1.465,6.838,1.954,1.465,5.373,1.954,6.838-.488,1.465-1.954-2.931-2.931-1.954-4.885,3.419-.488,5.373,4.4,2.931,6.838s-6.838,1.954-9.281.488a49.309,49.309,0,0,1-15.631-16.119C602.049,261.148,601.561,259.682,600.584,259.194Z" transform="translate(-481.4 -64.3)" fill="#060808"/>
    </g>
    <path id="Path_100" data-name="Path 100" d="M484.794,85.807a9.049,9.049,0,0,1,12.211-.977c2.442,1.954,3.419,5.373,2.931,8.792a8.942,8.942,0,0,1-8.3,6.35c-3.908.488-7.327-2.931-8.792-6.35C482.352,90.692,482.84,87.761,484.794,85.807Z" transform="translate(-4220.305 -2241.947)" fill="#060808"/>
    <path id="Path_101" data-name="Path 101" d="M500,92.181c0-4.885,3.419-9.281,8.3-9.281,3.907,0,7.327,2.931,8.792,6.35,0,2.442,0,5.373-1.954,7.327a9.017,9.017,0,0,1-11.723,1.465C501.954,97.065,500.977,94.623,500,92.181Z" transform="translate(-4152.962 -2241.97)" fill="#060808"/>
    <path id="Path_102" data-name="Path 102" d="M482.729,95.237a9.841,9.841,0,0,1,8.3-8.3c4.4-.488,8.3,3.419,9.281,7.815a8.481,8.481,0,0,1-8.3,9.281C486.637,104.517,482.241,100.121,482.729,95.237Z" transform="translate(-4220.194 -2226.465)" fill="#060808"/>
    <path id="Path_103" data-name="Path 103" d="M491.309,113.2a9.739,9.739,0,0,1,7.327-6.35c3.907-.977,7.815,1.954,9.281,5.373,1.954,4.885-1.954,11.234-7.327,11.723C494.728,124.924,489.844,119.063,491.309,113.2Z" transform="translate(-4187.743 -2149.67)" fill="#060808"/>
    <path id="Path_104" data-name="Path 104" d="M562.452,74.958c2.442-2.931,3.907-6.838,4.885-10.258,3.419.977,7.327,1.954,9.769,4.885,1.954,2.931,1.954,6.838,2.931,10.258,1.954-.977,3.419-2.442,5.861-2.442,3.907,0,7.327,5.373,5.373,9.281-.977,1.954-2.93,2.442-4.4,3.419,7.327,6.35,15.142,12.7,18.073,21.98.977,3.419.977,7.815,4.4,9.769a5.614,5.614,0,0,0,8.3-3.908c0-1.954-1.954-4.4-3.907-4.4-1.465,1.954,1.954,2.442,1.954,4.4-.488,2.442-3.907,3.908-5.862,1.954-1.465-1.954-2.93-4.4-1.465-6.35a7.928,7.928,0,0,1,7.815-3.908c3.908.488,6.35,3.908,9.769,4.885a12.027,12.027,0,0,0,5.862-.488c0,3.908.488,8.3-2.931,10.746-3.419,2.931-8.3,2.931-12.211,2.442.488,3.908.488,8.3-2.931,10.746-2.931,2.931-7.327,2.931-11.234,1.954a21.407,21.407,0,0,1-3.419,9.281c2.442,3.419,6.35,5.861,9.769,8.3,3.907,1.465,7.327,3.419,9.769,7.327,2.442,2.931,3.908,7.327,1.465,11.234-1.465,2.442-5.373,2.931-7.815,1.465-4.4-1.465-2.931-9.769,1.465-9.281,1.954,0,.488,2.931,2.442,2.931,1.954-2.931,0-6.838-1.954-9.281-1.465-2.442-4.4-2.931-6.35-3.908a75.414,75.414,0,0,0-15.142-2.442c-6.839,7.327-18.073,8.792-27.354,6.35,0-.488-.489-1.954-.489-2.442,8.792,2.442,19.05.488,25.888-5.373a28.333,28.333,0,0,1-4.885-5.861c-1.954-3.419-2.442-7.815-2.931-11.723a6.942,6.942,0,0,0-.977-2.931c-1.954,3.908-4.885,8.3-9.769,9.281-3.419.977-6.35-.488-9.281-2.442,5.373-2.931,6.838-9.281,6.35-15.142-.488-3.908.977-8.3,4.885-9.769,2.442-.977,6.35-.488,7.327,2.442,1.465,2.931-1.465,7.327-4.885,6.35-1.465-.977-1.465-2.931-2.442-4.4-2.931,1.465-.489,6.35,2.442,6.35,4.4.977,8.3-3.419,7.815-7.327s-3.908-6.838-7.815-7.815c-5.862-1.954-12.7-1.954-17.584,1.954a32.119,32.119,0,0,0-8.3,11.234c-.489,5.373-.977,10.258-1.465,15.631.977,4.885,3.419,8.792,6.35,12.7a5.156,5.156,0,0,0-2.442.977c-2.931-3.908-6.35-8.3-7.815-13.677-2.442-6.838-3.907-14.165-5.862-21-.977-3.908-2.442-7.327-5.862-9.769,2.931-1.465,6.838-2.931,10.258-1.954,3.907,1.465,5.373,5.373,7.815,8.3,3.419-2.931,6.838-5.861,11.234-7.327-1.465-1.954-3.419-4.4-2.442-6.838a5.706,5.706,0,0,1,9.769-2.442c1.954,1.954,1.465,5.373.489,7.815,3.419.488,7.327.977,10.258,3.419,4.885,3.908,8.792,9.769,9.281,16.119.488,6.838,1.465,14.165,3.907,20.515.489,0,.977,0,.977-.488,5.862-8.3,8.792-19.538,6.839-29.8-1.954-8.792-8.3-16.607-15.142-21.98-7.327-5.861-17.1-6.838-26.376-6.35a51.6,51.6,0,0,0-25.4,6.35c-8.792,4.4-17.584,10.746-21.492,20.027,2.442.977,5.862,1.465,5.862,4.4.489,1.954-.977,3.908-2.442,5.373,1.954.977,4.885.488,6.838,1.954,2.931,1.954,3.908,5.861,4.885,9.281a11.906,11.906,0,0,0-10.258,5.861c-2.931,4.885-4.4,10.258-7.815,14.654-2.931,3.419-8.792,3.908-12.7,1.954-.489-2.931-.489-6.838.977-9.769.977-1.954,4.4-3.419,6.35-1.465a3.828,3.828,0,0,1-.489,5.373,8.313,8.313,0,0,1-3.419.488c.977,3.419,5.373,1.465,6.35-.977,2.442-3.908-1.954-9.281-6.35-7.815-4.885.977-5.862,6.838-5.373,11.234.977,10.258,3.907,21,12.211,27.842,1.954,1.954,3.908,2.931,5.862,4.4-.977.977-1.954,1.465-2.931,2.442a49.59,49.59,0,0,1-18.073-34.68c-.977-14.654,4.4-28.819,12.7-41.03,7.815-12.211,21-18.561,33.7-25.4C547.8,86.192,557.078,82.284,562.452,74.958Z" transform="translate(-4180.245 -2312.669)" fill="#dfdfdf"/>
    <path id="Path_105" data-name="Path 105" d="M505.8,104.2a4.877,4.877,0,0,1,1.954,2.442c3.419,6.838,9.281,12.211,15.631,16.119,2.931,1.465,6.838,1.954,9.281-.488s.489-7.327-2.931-6.838c-.977,1.954,3.419,2.931,1.954,4.885s-4.885,1.465-6.838.488c-2.442-1.465-1.465-6.35,1.465-6.838,5.373-.977,10.746.977,16.119-.488,1.954-.488,3.419-1.465,5.373-1.954a10.242,10.242,0,0,1,1.954,5.373c0,1.954-.977,3.908-1.465,5.861,2.442-.977,4.885-2.442,7.815-.977,1.954.977,1.954,3.419,2.442,5.373,10.746-2.931,20.027-11.234,25.888-21A3.813,3.813,0,0,1,586.4,104.2c-1.954,8.792-7.815,16.119-14.654,21.98a43.363,43.363,0,0,1-32.727,8.3A40.84,40.84,0,0,1,505.8,104.2Z" transform="translate(-4130.432 -2159.229)" fill="#dfdfdf"/>
    <path id="Path_106" data-name="Path 106" d="M481.5,104.3l.488.488c2.442,3.908,4.885,7.815,9.281,9.769,6.838,2.931,16.119,0,18.561-7.327,2.442.977,4.885,1.954,5.861,4.4.977,1.954.489,4.4,0,6.35,6.838-1.954,12.7-7.327,16.608-13.188a.478.478,0,0,0,.488-.488c-1.954,5.861-5.861,11.234-10.746,14.165a26.838,26.838,0,0,1-26.376,1.954C488.827,117.488,483.942,111.627,481.5,104.3Z" transform="translate(-4224.826 -2158.841)" fill="#dfdfdf"/>
    <path id="Path_107" data-name="Path 107" d="M537.308,96.538c-.489-2.442-1.954-4.885-2.931-6.838,4.885,5.861,9.281,12.7,10.746,20.515,2.93,15.142,0,32.727-10.258,44.938,1.954-4.885,4.4-9.769,5.373-14.654.488-3.419,3.907-6.35,2.93-10.258a4.328,4.328,0,0,0-6.838-2.442c-.977.488-1.954,1.954-.488,2.442,1.465-.488,2.93-2.442,4.4-.977,1.954,2.442,0,7.815-3.908,7.327-2.442-.488-2.931-2.931-2.931-4.885C533.888,119.984,540.238,108.261,537.308,96.538Z" transform="translate(-4023.218 -2215.555)" fill="#dfdfdf"/>
  </g>
</svg>